<svg width="567.8px" height="131.6px" xmlns="http://www.w3.org/2000/svg" viewBox="-33.89999999999998 9.200000000000003 567.8 131.6" style="background: none;" preserveAspectRatio="xMidYMid"><defs><linearGradient id="editing-shiny-gradient" x1="0.07141634964894383" x2="0.9285836503510562" y1="0.24248096254497292" y2="0.7575190374550271" gradientUnits="objectBoundingBox"><stop offset="0.0" stop-color="#ff7e00"></stop><stop offset="0.5" stop-color="#f41d1d"></stop><stop offset="1.0" stop-color="#d88c51"></stop></linearGradient><linearGradient id="editing-shiny-gradient2" x1="0" x2="0" y1="0" y2="1"><stop offset="0.2" stop-color="#fff" stop-opacity="0.8"></stop><stop offset="0.8" stop-color="#fff" stop-opacity="0"></stop></linearGradient><filter id="editing-shiny2" x="-100%" y="-100%" width="300%" height="300%"><feMorphology operator="erode" radius="2"></feMorphology></filter><filter id="editing-shiny" x="-100%" y="-100%" width="300%" height="300%"><feFlood flood-color="#fff" result="flood"></feFlood><feConvolveMatrix in="SourceGraphic" result="conv" order="8,8" divisor="1" kernelMatrix="0 0 0 0 0 0 0 0 0 0 0 1 1 0 0 0 0 0 0 1 1 0 0 0 0 0 1 0 0 1 0 0 0 0 1 0 0 1 0 0 0 1 0 0 0 0 1 0 0 1 1 0 0 1 1 0 0 0 0 1 1 0 0 0 "></feConvolveMatrix><feOffset dx="0" dy="4" in="conv" result="offset"></feOffset><feComposite operator="in" in="flood" in2="offset" result="comp"></feComposite><feGaussianBlur in="offset" stdDeviation="3" result="shadow"></feGaussianBlur><feColorMatrix in="shadow" type="matrix" values="0.7 0 0 0 0  0 0.7 0 0 0  0 0 0.7 0 0  0 0 0 0.3 0" result="dark-shadow"></feColorMatrix><feOffset dx="0" dy="4" in="dark-shadow" result="offset-shadow"></feOffset><feOffset dx="0" dy="2" in="conv" result="offset-2"></feOffset><feComposite operator="out" in="offset" in2="offset-2" result="edge-diff"></feComposite><feGaussianBlur in="edge-diff" stdDeviation="1" result="edge-blur"></feGaussianBlur><feColorMatrix in="edge-blur" result="edge-shadow" type="matrix" values="0 0 0 0 0  0 0 0 0 0  0 0 0 0 0  0 0 0 0.5 0"></feColorMatrix><feComposite operator="in" in="edge-shadow" in2="offset" result="edge-shadow-in"></feComposite><feOffset dx="0" dy="1" in="edge-shadow-in" result="edge-shadow-final"></feOffset><feMerge result="out"><feMergeNode in="offset-shadow"></feMergeNode><feMergeNode in="comp"></feMergeNode><feMergeNode in="edge-shadow-final"></feMergeNode><feMergeNode in="SourceGraphic"></feMergeNode></feMerge></filter></defs><g filter="url(#editing-shiny)"><g transform="translate(47.69999027252197, 104.21500015258789)"><path d="M6.61-3.58L6.61-3.58L6.61-3.58Q6.61-4.29 6.67-4.96L6.67-4.96L6.67-4.96Q6.74-5.64 6.80-6.22L6.80-6.22L6.80-6.22Q6.80-10.70 6.80-14.47L6.80-14.47L6.80-14.47Q6.80-18.24 6.80-21.51L6.80-21.51L6.80-21.51Q6.80-24.78 6.80-27.65L6.80-27.65L6.80-27.65Q6.80-30.52 6.80-33.21L6.80-33.21L6.80-33.21Q6.80-35.90 6.82-38.49L6.82-38.49L6.82-38.49Q6.83-41.09 6.83-43.80L6.83-43.80L6.83-43.80Q6.67-44.25 6.53-45.05L6.53-45.05L6.53-45.05Q6.38-45.86 6.38-46.57L6.38-46.57L6.38-46.57Q6.38-47.24 6.59-47.92L6.59-47.92L6.59-47.92Q6.80-48.60 7.23-49.13L7.23-49.13L7.23-49.13Q7.67-49.66 8.31-49.98L8.31-49.98L8.31-49.98Q8.96-50.31 9.80-50.31L9.80-50.31L9.80-50.31Q11.15-50.31 12.54-50.14L12.54-50.14L12.54-50.14Q13.92-49.98 15.66-49.98L15.66-49.98L15.66-49.98Q17.11-49.98 18.56-50.13L18.56-50.13L18.56-50.13Q20.01-50.27 21.66-50.31L21.66-50.31L21.66-50.31Q26.52-50.31 30.47-49.34L30.47-49.34L30.47-49.34Q34.42-48.37 37.21-46.34L37.21-46.34L37.21-46.34Q39.99-44.31 41.51-41.17L41.51-41.17L41.51-41.17Q43.02-38.03 43.02-33.68L43.02-33.68L43.02-33.68Q43.02-29.55 41.88-26.35L41.88-26.35L41.88-26.35Q40.73-23.14 38.95-20.75L38.95-20.75L38.95-20.75Q37.16-18.37 34.95-16.77L34.95-16.77L34.95-16.77Q32.74-15.18 30.65-14.34L30.65-14.34L30.65-14.34Q30.94-12.60 31.57-11.07L31.57-11.07L31.57-11.07Q32.19-9.54 33.18-8.38L33.18-8.38L33.18-8.38Q34.16-7.22 35.48-6.54L35.48-6.54L35.48-6.54Q36.80-5.87 38.45-5.87L38.45-5.87L38.45-5.87Q39.67-5.87 40.69-6.25L40.69-6.25L40.69-6.25Q41.70-6.64 42.44-7.77L42.44-7.77L42.44-7.77Q42.89-8.41 43.54-8.91L43.54-8.91L43.54-8.91Q44.18-9.41 45.18-9.41L45.18-9.41L45.18-9.41Q46.92-9.41 47.89-8.44L47.89-8.44L47.89-8.44Q48.86-7.48 48.86-5.99L48.86-5.99L48.86-5.99Q48.86-4.61 48.07-3.35L48.07-3.35L48.07-3.35Q47.28-2.09 45.84-1.14L45.84-1.14L45.84-1.14Q44.41-0.19 42.38 0.37L42.38 0.37L42.38 0.37Q40.35 0.93 37.87 0.93L37.87 0.93L37.87 0.93Q35.58 0.93 33.73 0.27L33.73 0.27L33.73 0.27Q31.87-0.39 30.41-1.50L30.41-1.50L30.41-1.50Q28.94-2.61 27.81-4.04L27.81-4.04L27.81-4.04Q26.68-5.48 25.88-7.04L25.88-7.04L25.88-7.04Q25.07-8.60 24.56-10.15L24.56-10.15L24.56-10.15Q24.04-11.70 23.75-13.05L23.75-13.05L23.75-13.05Q23.36-13.05 22.72-13.05L22.72-13.05L22.72-13.05Q22.08-13.05 21.40-13.05L21.40-13.05L21.40-13.05Q20.72-13.05 20.06-13.07L20.06-13.07L20.06-13.07Q19.40-13.08 18.98-13.08L18.98-13.08L18.98-13.08Q18.05-13.12 16.68-13.13L16.68-13.13L16.68-13.13Q15.31-13.15 14.18-13.15L14.18-13.15L14.18-8.44L14.18-8.44Q14.24-6.93 14.57-5.49L14.57-5.49L14.57-5.49Q14.89-4.06 14.89-2.55L14.89-2.55L14.89-2.55Q14.89-1.61 14.52-0.97L14.52-0.97L14.52-0.97Q14.15-0.32 13.57 0.11L13.57 0.11L13.57 0.11Q12.99 0.55 12.31 0.74L12.31 0.74L12.31 0.74Q11.63 0.93 11.02 0.93L11.02 0.93L11.02 0.93Q10.05 0.93 9.25 0.60L9.25 0.60L9.25 0.60Q8.44 0.26 7.86-0.34L7.86-0.34L7.86-0.34Q7.28-0.93 6.94-1.76L6.94-1.76L6.94-1.76Q6.61-2.58 6.61-3.58ZM14.15-20.08L14.15-20.08L14.15-20.08Q14.99-20.04 16.11-20.01L16.11-20.01L16.11-20.01Q17.24-19.98 18.27-19.95L18.27-19.95L18.27-19.95Q19.30-19.92 20.11-19.90L20.11-19.90L20.11-19.90Q20.92-19.88 21.14-19.88L21.14-19.88L21.14-19.88Q25.49-19.88 28.28-21.08L28.28-21.08L28.28-21.08Q31.07-22.27 32.65-24.23L32.65-24.23L32.65-24.23Q34.22-26.20 34.82-28.75L34.82-28.75L34.82-28.75Q35.42-31.29 35.42-33.97L35.42-33.97L35.42-33.97Q35.42-36.32 34.68-37.95L34.68-37.95L34.68-37.95Q33.93-39.57 32.71-40.64L32.71-40.64L32.71-40.64Q31.49-41.70 29.94-42.31L29.94-42.31L29.94-42.31Q28.39-42.93 26.80-43.22L26.80-43.22L26.80-43.22Q25.20-43.51 23.67-43.57L23.67-43.57L23.67-43.57Q22.14-43.63 20.98-43.63L20.98-43.63L20.98-43.63Q19.34-43.63 17.64-43.59L17.64-43.59L17.64-43.59Q15.95-43.54 13.99-43.51L13.99-43.51L13.99-43.51Q13.92-42.28 13.91-41.28L13.91-41.28L13.91-41.28Q13.89-40.28 13.87-39.33L13.87-39.33L13.87-39.33Q13.86-38.38 13.86-37.40L13.86-37.40L13.86-37.40Q13.86-36.42 13.86-35.19L13.86-35.19L13.86-35.19Q13.86-33 13.87-31.11L13.87-31.11L13.87-31.11Q13.89-29.23 13.92-27.44L13.92-27.44L13.92-27.44Q13.95-25.65 14.00-23.85L14.00-23.85L14.00-23.85Q14.05-22.04 14.15-20.08ZM29.23-13.86L29.26-13.89L29.26-13.89Q29.23-13.89 29.23-13.86L29.23-13.86ZM29.23-13.86L29.20-13.86L29.23-13.86ZM62.17-14.53L62.17-14.53L62.17-14.53Q62.78-12.12 63.99-10.49L63.99-10.49L63.99-10.49Q65.19-8.86 66.71-7.86L66.71-7.86L66.71-7.86Q68.22-6.86 69.92-6.43L69.92-6.43L69.92-6.43Q71.61-5.99 73.22-5.99L73.22-5.99L73.22-5.99Q75.73-5.99 77.70-6.43L77.70-6.43L77.70-6.43Q79.66-6.86 81.07-7.49L81.07-7.49L81.07-7.49Q82.47-8.12 83.34-8.80L83.34-8.80L83.34-8.80Q84.21-9.47 84.56-9.99L84.56-9.99L84.56-9.99Q84.88-10.47 85.29-10.91L85.29-10.91L85.29-10.91Q85.69-11.34 86.16-11.68L86.16-11.68L86.16-11.68Q86.63-12.02 87.09-12.21L87.09-12.21L87.09-12.21Q87.56-12.41 87.98-12.41L87.98-12.41L87.98-12.41Q89.59-12.41 90.48-11.46L90.48-11.46L90.48-11.46Q91.36-10.51 91.36-8.89L91.36-8.89L91.36-8.89Q91.36-8.28 90.91-7.35L90.91-7.35L90.91-7.35Q90.46-6.41 89.24-5.29L89.24-5.29L89.24-5.29Q87.88-4.03 86.22-2.90L86.22-2.90L86.22-2.90Q84.56-1.77 82.56-0.92L82.56-0.92L82.56-0.92Q80.57-0.06 78.23 0.44L78.23 0.44L78.23 0.44Q75.89 0.93 73.19 0.93L73.19 0.93L73.19 0.93Q70.00 0.93 67.35 0.08L67.35 0.08L67.35 0.08Q64.71-0.77 62.62-2.24L62.62-2.24L62.62-2.24Q60.52-3.71 58.97-5.64L58.97-5.64L58.97-5.64Q57.43-7.57 56.40-9.76L56.40-9.76L56.40-9.76Q55.37-11.96 54.85-14.28L54.85-14.28L54.85-14.28Q54.33-16.60 54.33-18.79L54.33-18.79L54.33-18.79Q54.33-23.56 55.88-27.41L55.88-27.41L55.88-27.41Q57.43-31.26 60.13-34.00L60.13-34.00L60.13-34.00Q62.84-36.74 66.55-38.22L66.55-38.22L66.55-38.22Q70.25-39.70 74.57-39.70L74.57-39.70L74.57-39.70Q77.67-39.70 80.37-38.78L80.37-38.78L80.37-38.78Q83.08-37.87 85.19-36.21L85.19-36.21L85.19-36.21Q87.30-34.55 88.74-32.24L88.74-32.24L88.74-32.24Q90.17-29.94 90.75-27.17L90.75-27.17L90.75-27.17Q91.39-26.62 91.70-25.73L91.70-25.73L91.70-25.73Q92.01-24.85 92.01-23.98L92.01-23.98L92.01-23.98Q92.01-22.53 91.02-21.61L91.02-21.61L91.02-21.61Q90.04-20.69 88.56-20.33L88.56-20.33L88.56-20.33Q85.30-19.50 82.05-18.79L82.05-18.79L82.05-18.79Q78.79-18.08 75.51-17.40L75.51-17.40L75.51-17.40Q72.22-16.73 68.88-16.02L68.88-16.02L68.88-16.02Q65.55-15.31 62.17-14.53ZM61.62-20.50L61.62-20.50L61.62-20.50Q67.10-21.79 72.70-22.91L72.70-22.91L72.70-22.91Q78.31-24.04 84.11-25.43L84.11-25.43L84.11-25.43Q83.56-26.91 82.63-28.25L82.63-28.25L82.63-28.25Q81.69-29.58 80.44-30.58L80.44-30.58L80.44-30.58Q79.18-31.58 77.65-32.16L77.65-32.16L77.65-32.16Q76.12-32.74 74.35-32.74L74.35-32.74L74.35-32.74Q71.61-32.74 69.37-31.86L69.37-31.86L69.37-31.86Q67.13-30.97 65.48-29.37L65.48-29.37L65.48-29.37Q63.84-27.78 62.84-25.51L62.84-25.51L62.84-25.51Q61.84-23.24 61.62-20.50ZM99.68-19.34L99.68-19.34L99.68-19.34Q99.68-23.72 101.14-27.44L101.14-27.44L101.14-27.44Q102.61-31.16 105.20-33.89L105.20-33.89L105.20-33.89Q107.80-36.61 111.34-38.16L111.34-38.16L111.34-38.16Q114.89-39.70 119.04-39.70L119.04-39.70L119.04-39.70Q120.91-39.70 122.75-39.33L122.75-39.33L122.75-39.33Q124.59-38.96 126.25-38.24L126.25-38.24L126.25-38.24Q127.91-37.51 129.33-36.45L129.33-36.45L129.33-36.45Q130.74-35.38 131.81-34.00L131.81-34.00L131.81-34.00Q131.81-34.84 131.81-36.38L131.81-36.38L131.81-36.38Q131.81-37.93 131.79-40.06L131.79-40.06L131.79-40.06Q131.77-42.18 131.74-44.79L131.74-44.79L131.74-44.79Q131.71-47.41 131.68-50.34L131.68-50.34L128.94-50.34L128.94-50.34Q128.20-50.34 127.49-50.18L127.49-50.18L127.49-50.18Q126.78-50.02 125.97-50.02L125.97-50.02L125.97-50.02Q125.39-50.02 124.80-50.29L124.80-50.29L124.80-50.29Q124.20-50.56 123.73-51.06L123.73-51.06L123.73-51.06Q123.27-51.56 122.96-52.29L122.96-52.29L122.96-52.29Q122.65-53.01 122.65-53.95L122.65-53.95L122.65-53.95Q122.65-55.62 123.52-56.53L123.52-56.53L123.52-56.53Q124.39-57.43 125.72-57.43L125.72-57.43L125.72-57.43Q126.04-57.43 126.49-57.41L126.49-57.41L126.49-57.41Q126.94-57.40 127.52-57.23L127.52-57.23L127.52-57.23Q129.65-57.20 131.81-57.28L131.81-57.28L131.81-57.28Q133.97-57.36 136.45-57.40L136.45-57.40L136.45-57.40Q137.80-57.40 138.57-56.46L138.57-56.46L138.57-56.46Q139.35-55.53 139.35-53.98L139.35-53.98L139.35-53.98Q139.35-52.88 139.06-52.27L139.06-52.27L139.06-52.27Q138.99-50.18 138.96-47.10L138.96-47.10L138.96-47.10Q138.93-44.02 138.90-40.54L138.90-40.54L138.90-40.54Q138.86-37.06 138.85-33.45L138.85-33.45L138.85-33.45Q138.83-29.84 138.82-26.70L138.82-26.70L138.82-26.70Q138.80-23.56 138.80-21.14L138.80-21.14L138.80-21.14Q138.80-18.72 138.80-17.63L138.80-17.63L138.80-17.63Q138.80-14.47 138.85-11.94L138.85-11.94L138.85-11.94Q138.90-9.41 139.03-7.96L139.03-7.96L139.61-8.31L139.61-8.31Q140.28-8.70 140.91-8.99L140.91-8.99L140.91-8.99Q141.54-9.28 142.28-9.35L142.28-9.35L142.28-9.35Q142.83-9.41 143.41-9.23L143.41-9.23L143.41-9.23Q143.99-9.06 144.47-8.65L144.47-8.65L144.47-8.65Q144.96-8.25 145.28-7.57L145.28-7.57L145.28-7.57Q145.60-6.90 145.60-5.93L145.60-5.93L145.60-5.93Q145.60-4.58 144.87-3.75L144.87-3.75L144.87-3.75Q144.15-2.93 143.38-2.61L143.38-2.61L143.38-2.61Q142.60-2.26 141.89-1.89L141.89-1.89L141.89-1.89Q141.18-1.51 140.44-1.13L140.44-1.13L140.44-1.13Q139.35-0.55 138.33-0.03L138.33-0.03L138.33-0.03Q137.32 0.48 136.54 0.48L136.54 0.48L136.54 0.48Q135.00 0.48 134.05-0.98L134.05-0.98L134.05-0.98Q133.10-2.45 132.61-4.90L132.61-4.90L132.61-4.90Q131.32-3.58 129.68-2.51L129.68-2.51L129.68-2.51Q128.04-1.45 126.17-0.68L126.17-0.68L126.17-0.68Q124.30 0.10 122.25 0.52L122.25 0.52L122.25 0.52Q120.21 0.93 118.14 0.93L118.14 0.93L118.14 0.93Q113.95 0.93 110.55-0.64L110.55-0.64L110.55-0.64Q107.15-2.22 104.74-4.96L104.74-4.96L104.74-4.96Q102.32-7.70 101.00-11.39L101.00-11.39L101.00-11.39Q99.68-15.08 99.68-19.34ZM106.86-19.34L106.86-19.34L106.86-19.34Q106.86-16.79 107.67-14.39L107.67-14.39L107.67-14.39Q108.47-11.99 110.01-10.12L110.01-10.12L110.01-10.12Q111.54-8.25 113.73-7.12L113.73-7.12L113.73-7.12Q115.92-5.99 118.69-5.99L118.69-5.99L118.69-5.99Q120.82-5.99 122.94-6.69L122.94-6.69L122.94-6.69Q125.07-7.38 126.86-8.65L126.86-8.65L126.86-8.65Q128.65-9.93 129.97-11.75L129.97-11.75L129.97-11.75Q131.29-13.57 131.77-15.86L131.77-15.86L131.77-15.86Q131.77-17.18 131.77-18.01L131.77-18.01L131.77-18.01Q131.77-18.85 131.76-19.45L131.76-19.45L131.76-19.45Q131.74-20.04 131.74-20.54L131.74-20.54L131.74-20.54Q131.74-21.04 131.74-21.69L131.74-21.69L131.74-21.69Q131.23-24.01 130.08-26.02L130.08-26.02L130.08-26.02Q128.94-28.04 127.29-29.52L127.29-29.52L127.29-29.52Q125.65-31.00 123.60-31.86L123.60-31.86L123.60-31.86Q121.56-32.71 119.27-32.71L119.27-32.71L119.27-32.71Q116.60-32.71 114.32-31.74L114.32-31.74L114.32-31.74Q112.05-30.78 110.39-29.02L110.39-29.02L110.39-29.02Q108.73-27.26 107.80-24.80L107.80-24.80L107.80-24.80Q106.86-22.33 106.86-19.34ZM150.53-19.34L150.53-19.34L150.53-19.34Q150.53-23.72 152.00-27.44L152.00-27.44L152.00-27.44Q153.46-31.16 156.06-33.89L156.06-33.89L156.06-33.89Q158.65-36.61 162.20-38.16L162.20-38.16L162.20-38.16Q165.74-39.70 169.90-39.70L169.90-39.70L169.90-39.70Q171.77-39.70 173.60-39.33L173.60-39.33L173.60-39.33Q175.44-38.96 177.10-38.24L177.10-38.24L177.10-38.24Q178.76-37.51 180.18-36.45L180.18-36.45L180.18-36.45Q181.60-35.38 182.66-34.00L182.66-34.00L182.66-34.00Q182.66-34.84 182.66-36.38L182.66-36.38L182.66-36.38Q182.66-37.93 182.64-40.06L182.64-40.06L182.64-40.06Q182.63-42.18 182.60-44.79L182.60-44.79L182.60-44.79Q182.56-47.41 182.53-50.34L182.53-50.34L179.79-50.34L179.79-50.34Q179.05-50.34 178.34-50.18L178.34-50.18L178.34-50.18Q177.63-50.02 176.83-50.02L176.83-50.02L176.83-50.02Q176.25-50.02 175.65-50.29L175.65-50.29L175.65-50.29Q175.05-50.56 174.59-51.06L174.59-51.06L174.59-51.06Q174.12-51.56 173.81-52.29L173.81-52.29L173.81-52.29Q173.51-53.01 173.51-53.95L173.51-53.95L173.51-53.95Q173.51-55.62 174.38-56.53L174.38-56.53L174.38-56.53Q175.25-57.43 176.57-57.43L176.57-57.43L176.57-57.43Q176.89-57.43 177.34-57.41L177.34-57.41L177.34-57.41Q177.79-57.40 178.37-57.23L178.37-57.23L178.37-57.23Q180.50-57.20 182.66-57.28L182.66-57.28L182.66-57.28Q184.82-57.36 187.30-57.40L187.30-57.40L187.30-57.40Q188.65-57.40 189.43-56.46L189.43-56.46L189.43-56.46Q190.20-55.53 190.20-53.98L190.20-53.98L190.20-53.98Q190.20-52.88 189.91-52.27L189.91-52.27L189.91-52.27Q189.85-50.18 189.81-47.10L189.81-47.10L189.81-47.10Q189.78-44.02 189.75-40.54L189.75-40.54L189.75-40.54Q189.72-37.06 189.70-33.45L189.70-33.45L189.70-33.45Q189.69-29.84 189.67-26.70L189.67-26.70L189.67-26.70Q189.65-23.56 189.65-21.14L189.65-21.14L189.65-21.14Q189.65-18.72 189.65-17.63L189.65-17.63L189.65-17.63Q189.65-14.47 189.70-11.94L189.70-11.94L189.70-11.94Q189.75-9.41 189.88-7.96L189.88-7.96L190.46-8.31L190.46-8.31Q191.14-8.70 191.76-8.99L191.76-8.99L191.76-8.99Q192.39-9.28 193.13-9.35L193.13-9.35L193.13-9.35Q193.68-9.41 194.26-9.23L194.26-9.23L194.26-9.23Q194.84-9.06 195.33-8.65L195.33-8.65L195.33-8.65Q195.81-8.25 196.13-7.57L196.13-7.57L196.13-7.57Q196.45-6.90 196.45-5.93L196.45-5.93L196.45-5.93Q196.45-4.58 195.73-3.75L195.73-3.75L195.73-3.75Q195.00-2.93 194.23-2.61L194.23-2.61L194.23-2.61Q193.46-2.26 192.75-1.89L192.75-1.89L192.75-1.89Q192.04-1.51 191.30-1.13L191.30-1.13L191.30-1.13Q190.20-0.55 189.19-0.03L189.19-0.03L189.19-0.03Q188.17 0.48 187.40 0.48L187.40 0.48L187.40 0.48Q185.85 0.48 184.90-0.98L184.90-0.98L184.90-0.98Q183.95-2.45 183.47-4.90L183.47-4.90L183.47-4.90Q182.18-3.58 180.53-2.51L180.53-2.51L180.53-2.51Q178.89-1.45 177.02-0.68L177.02-0.68L177.02-0.68Q175.15 0.10 173.10 0.52L173.10 0.52L173.10 0.52Q171.06 0.93 169.00 0.93L169.00 0.93L169.00 0.93Q164.81 0.93 161.41-0.64L161.41-0.64L161.41-0.64Q158.01-2.22 155.59-4.96L155.59-4.96L155.59-4.96Q153.17-7.70 151.85-11.39L151.85-11.39L151.85-11.39Q150.53-15.08 150.53-19.34ZM157.72-19.34L157.72-19.34L157.72-19.34Q157.72-16.79 158.52-14.39L158.52-14.39L158.52-14.39Q159.33-11.99 160.86-10.12L160.86-10.12L160.86-10.12Q162.39-8.25 164.58-7.12L164.58-7.12L164.58-7.12Q166.77-5.99 169.54-5.99L169.54-5.99L169.54-5.99Q171.67-5.99 173.80-6.69L173.80-6.69L173.80-6.69Q175.92-7.38 177.71-8.65L177.71-8.65L177.71-8.65Q179.50-9.93 180.82-11.75L180.82-11.75L180.82-11.75Q182.14-13.57 182.63-15.86L182.63-15.86L182.63-15.86Q182.63-17.18 182.63-18.01L182.63-18.01L182.63-18.01Q182.63-18.85 182.61-19.45L182.61-19.45L182.61-19.45Q182.60-20.04 182.60-20.54L182.60-20.54L182.60-20.54Q182.60-21.04 182.60-21.69L182.60-21.69L182.60-21.69Q182.08-24.01 180.94-26.02L180.94-26.02L180.94-26.02Q179.79-28.04 178.15-29.52L178.15-29.52L178.15-29.52Q176.50-31.00 174.46-31.86L174.46-31.86L174.46-31.86Q172.41-32.71 170.12-32.71L170.12-32.71L170.12-32.71Q167.45-32.71 165.18-31.74L165.18-31.74L165.18-31.74Q162.91-30.78 161.25-29.02L161.25-29.02L161.25-29.02Q159.59-27.26 158.65-24.80L158.65-24.80L158.65-24.80Q157.72-22.33 157.72-19.34ZM213.08-44.41L213.08-44.41L213.08-44.41Q212.31-44.05 211.47-44.07L211.47-44.07L211.47-44.07Q210.63-44.09 209.94-44.42L209.94-44.42L209.94-44.42Q209.25-44.76 208.73-45.41L208.73-45.41L208.73-45.41Q208.22-46.05 208.09-46.95L208.09-46.95L208.09-46.95Q207.99-47.57 208.14-48.36L208.14-48.36L208.14-48.36Q208.28-49.15 208.52-49.97L208.52-49.97L208.52-49.97Q208.76-50.79 208.97-51.58L208.97-51.58L208.97-51.58Q209.18-52.37 209.25-53.01L209.25-53.01L209.25-53.01Q209.34-54.46 210.12-55.43L210.12-55.43L210.12-55.43Q210.89-56.40 212.44-56.62L212.44-56.62L212.44-56.62Q213.57-56.82 214.56-56.49L214.56-56.49L214.56-56.49Q215.56-56.17 216.05-55.08L216.05-55.08L216.05-55.08Q216.21-54.72 216.32-54.25L216.32-54.25L216.32-54.25Q216.43-53.79 216.50-53.43L216.50-53.43L216.50-53.43Q216.53-53.11 216.48-52.63L216.48-52.63L216.48-52.63Q216.43-52.14 216.30-51.61L216.30-51.61L216.30-51.61Q216.18-51.08 216.00-50.55L216.00-50.55L216.00-50.55Q215.82-50.02 215.66-49.63L215.66-49.63L215.66-49.63Q215.40-49.08 215.32-48.45L215.32-48.45L215.32-48.45Q215.24-47.82 215.14-47.31L215.14-47.31L215.14-47.31Q215.05-46.79 214.95-46.37L214.95-46.37L214.95-46.37Q214.85-45.96 214.65-45.60L214.65-45.60L214.65-45.60Q214.44-45.25 214.06-44.96L214.06-44.96L214.06-44.96Q213.69-44.67 213.08-44.41ZM207.57-2.42L207.57-2.42L207.57-2.42Q207.57-3.22 207.65-3.77L207.65-3.77L207.65-3.77Q207.73-4.32 207.81-4.98L207.81-4.98L207.81-4.98Q207.89-5.64 207.97-6.54L207.97-6.54L207.97-6.54Q208.05-7.44 208.05-8.99L208.05-8.99L208.05-8.99Q208.05-14.76 208.02-20.45L208.02-20.45L208.02-20.45Q207.99-26.14 207.86-32.48L207.86-32.48L207.86-32.48Q207.38-32.45 206.77-32.42L206.77-32.42L206.77-32.42Q206.15-32.39 205.49-32.37L205.49-32.37L205.49-32.37Q204.83-32.36 204.22-32.34L204.22-32.34L204.22-32.34Q203.61-32.32 203.12-32.32L203.12-32.32L203.12-32.32Q202.54-32.32 201.95-32.50L201.95-32.50L201.95-32.50Q201.35-32.68 200.87-33.10L200.87-33.10L200.87-33.10Q200.38-33.52 200.06-34.18L200.06-34.18L200.06-34.18Q199.74-34.84 199.74-35.80L199.74-35.80L199.74-35.80Q199.74-37.51 200.66-38.40L200.66-38.40L200.66-38.40Q201.58-39.28 202.83-39.28L202.83-39.28L202.83-39.28Q204.06-39.28 205.27-39.17L205.27-39.17L205.27-39.17Q206.48-39.06 207.64-39.06L207.64-39.06L207.64-39.06Q208.83-39.06 210.02-39.17L210.02-39.17L210.02-39.17Q211.21-39.28 212.28-39.28L212.28-39.28L212.28-39.28Q213.92-39.28 214.63-38.41L214.63-38.41L214.63-38.41Q215.34-37.54 215.34-36.00L215.34-36.00L215.34-36.00Q215.34-34.68 215.11-33.40L215.11-33.40L215.11-33.40Q214.89-32.13 214.89-30.68L214.89-30.68L214.89-30.68Q214.89-27.78 214.85-24.85L214.85-24.85L214.85-24.85Q214.82-21.91 214.81-18.88L214.81-18.88L214.81-18.88Q214.79-15.86 214.77-12.70L214.77-12.70L214.77-12.70Q214.76-9.54 214.82-6.19L214.82-6.19L214.82-6.19Q215.34-6.22 215.76-6.35L215.76-6.35L215.76-6.35Q216.18-6.48 216.56-6.62L216.56-6.62L216.56-6.62Q216.95-6.77 217.38-6.88L217.38-6.88L217.38-6.88Q217.82-6.99 218.37-6.99L218.37-6.99L218.37-6.99Q219.21-6.99 219.74-6.80L219.74-6.80L219.74-6.80Q220.27-6.61 220.59-6.27L220.59-6.27L220.59-6.27Q220.91-5.93 221.07-5.43L221.07-5.43L221.07-5.43Q221.24-4.93 221.36-4.35L221.36-4.35L221.36-4.35Q221.59-2.84 220.62-1.93L220.62-1.93L220.62-1.93Q219.66-1.03 217.98-0.52L217.98-0.52L217.98-0.52Q217.01-0.26 216.00 0L216.00 0L216.00 0Q214.98 0.26 214.08 0.47L214.08 0.47L214.08 0.47Q213.18 0.68 212.44 0.81L212.44 0.81L212.44 0.81Q211.70 0.93 211.28 0.93L211.28 0.93L211.28 0.93Q209.38 0.93 208.47 0.05L208.47 0.05L208.47 0.05Q207.57-0.84 207.57-2.42ZM233.45-2.45L233.58-9.35L233.38-32.07L229.49-32.03L229.49-32.03Q228.74-32.03 228.20-32.34L228.20-32.34L228.20-32.34Q227.65-32.65 227.28-33.18L227.28-33.18L227.28-33.18Q226.91-33.71 226.71-34.39L226.71-34.39L226.71-34.39Q226.52-35.06 226.52-35.80L226.52-35.80L226.52-35.80Q226.52-37.06 226.83-37.72L226.83-37.72L226.83-37.72Q227.13-38.38 227.71-38.69L227.71-38.69L227.71-38.69Q228.29-38.99 229.13-39.04L229.13-39.04L229.13-39.04Q229.97-39.09 231.06-39.09L231.06-39.09L233.35-39.09L233.35-40.28L233.35-40.28Q233.35-41.48 233.34-42.22L233.34-42.22L233.34-42.22Q233.32-42.96 233.32-43.22L233.32-43.22L233.32-43.22Q233.32-44.15 233.14-45.08L233.14-45.08L233.14-45.08Q232.97-46.02 232.97-46.99L232.97-46.99L232.97-46.99Q232.97-47.79 233.16-48.40L233.16-48.40L233.16-48.40Q233.35-49.02 233.82-49.45L233.82-49.45L233.82-49.45Q234.29-49.89 235.06-50.11L235.06-50.11L235.06-50.11Q235.83-50.34 236.96-50.34L236.96-50.34L236.96-50.34Q237.74-50.34 238.43-50.21L238.43-50.21L238.43-50.21Q239.12-50.08 239.65-49.71L239.65-49.71L239.65-49.71Q240.18-49.34 240.51-48.69L240.51-48.69L240.51-48.69Q240.83-48.05 240.83-47.02L240.83-47.02L240.83-47.02Q240.83-45.63 240.59-44.28L240.59-44.28L240.59-44.28Q240.35-42.93 240.38-41.48L240.38-41.48L240.38-39.12L240.38-39.12Q242.89-39.19 244.29-39.22L244.29-39.22L244.29-39.22Q245.70-39.25 246.57-39.28L246.57-39.28L246.57-39.28Q246.69-39.28 246.81-39.30L246.81-39.30L246.81-39.30Q246.92-39.32 247.02-39.32L247.02-39.32L247.02-39.32Q247.40-39.35 247.89-39.35L247.89-39.35L247.89-39.35Q248.37-39.35 248.66-39.35L248.66-39.35L248.66-39.35Q249.27-39.35 249.85-39.16L249.85-39.16L249.85-39.16Q250.43-38.96 250.87-38.51L250.87-38.51L250.87-38.51Q251.30-38.06 251.56-37.35L251.56-37.35L251.56-37.35Q251.82-36.64 251.82-35.64L251.82-35.64L251.82-35.64Q251.82-34.87 251.69-34.19L251.69-34.19L251.69-34.19Q251.56-33.52 251.21-33L251.21-33L251.21-33Q250.85-32.48 250.17-32.18L250.17-32.18L250.17-32.18Q249.50-31.87 248.43-31.87L248.43-31.87L248.43-31.87Q247.44-31.87 246.42-31.98L246.42-31.98L246.42-31.98Q245.41-32.10 244.34-32.13L244.34-32.13L240.44-32.10L240.67-6.67L240.67-6.67Q241.99-6.90 242.99-7.09L242.99-7.09L242.99-7.09Q243.99-7.28 244.86-7.48L244.86-7.48L244.86-7.48Q245.73-7.67 246.57-7.93L246.57-7.93L246.57-7.93Q247.40-8.19 248.40-8.57L248.40-8.57L248.40-8.57Q248.95-8.86 249.69-9.17L249.69-9.17L249.69-9.17Q250.43-9.47 251.24-9.47L251.24-9.47L251.24-9.47Q252.82-9.47 253.72-8.40L253.72-8.40L253.72-8.40Q254.62-7.32 254.62-5.58L254.62-5.58L254.62-5.58Q254.62-5.12 254.41-4.58L254.41-4.58L254.41-4.58Q254.20-4.03 253.78-3.50L253.78-3.50L253.78-3.50Q253.37-2.96 252.70-2.53L252.70-2.53L252.70-2.53Q252.04-2.09 251.14-1.90L251.14-1.90L251.14-1.90Q250.17-1.71 248.92-1.42L248.92-1.42L248.92-1.42Q247.66-1.13 246.28-0.81L246.28-0.81L246.28-0.81Q244.89-0.48 243.50-0.16L243.50-0.16L243.50-0.16Q242.12 0.16 240.89 0.40L240.89 0.40L240.89 0.40Q239.67 0.64 238.73 0.81L238.73 0.81L238.73 0.81Q237.80 0.97 237.32 0.93L237.32 0.93L237.32 0.93Q236.74 0.93 236.04 0.79L236.04 0.79L236.04 0.79Q235.35 0.64 234.77 0.27L234.77 0.27L234.77 0.27Q234.19-0.10 233.82-0.76L233.82-0.76L233.82-0.76Q233.45-1.42 233.45-2.45L233.45-2.45ZM261.58-11.57L261.58-11.57L261.58-11.57Q261.74-14.18 262.66-15.55L262.66-15.55L262.66-15.55Q263.58-16.92 265.90-16.92L265.90-16.92L265.90-16.92Q267.35-16.92 268.38-16.10L268.38-16.10L268.38-16.10Q269.41-15.28 269.41-13.83L269.41-13.83L269.41-13.83Q269.41-12.99 269.25-12.15L269.25-12.15L269.25-12.15Q269.09-11.31 269.16-10.41L269.16-10.41L269.16-10.41Q269.29-9.31 270.12-8.41L270.12-8.41L270.12-8.41Q270.96-7.51 272.25-6.85L272.25-6.85L272.25-6.85Q273.54-6.19 275.18-5.82L275.18-5.82L275.18-5.82Q276.83-5.45 278.53-5.45L278.53-5.45L278.53-5.45Q280.27-5.45 282.00-5.75L282.00-5.75L282.00-5.75Q283.72-6.06 285.12-6.90L285.12-6.90L285.12-6.90Q286.53-7.73 287.40-9.18L287.40-9.18L287.40-9.18Q288.27-10.63 288.27-12.96L288.27-12.96L288.27-12.96Q288.27-14.47 287.53-15.81L287.53-15.81L287.53-15.81Q286.78-17.14 285.62-18.26L285.62-18.26L285.62-18.26Q284.46-19.37 283.06-20.27L283.06-20.27L283.06-20.27Q281.66-21.17 280.37-21.85L280.37-21.85L280.37-21.85Q278.53-22.78 276.62-23.67L276.62-23.67L276.62-23.67Q274.70-24.56 272.88-25.54L272.88-25.54L272.88-25.54Q271.06-26.52 269.43-27.70L269.43-27.70L269.43-27.70Q267.80-28.88 266.58-30.45L266.58-30.45L266.58-30.45Q265.35-32.03 264.64-34.11L264.64-34.11L264.64-34.11Q263.94-36.19 263.94-38.93L263.94-38.93L263.94-38.93Q263.94-41.99 265.24-44.21L265.24-44.21L265.24-44.21Q266.55-46.44 268.67-47.89L268.67-47.89L268.67-47.89Q270.80-49.34 273.56-50.03L273.56-50.03L273.56-50.03Q276.31-50.72 279.21-50.72L279.21-50.72L279.21-50.72Q281.79-50.72 284.21-50.27L284.21-50.27L284.21-50.27Q286.62-49.82 288.52-48.81L288.52-48.81L288.52-48.81Q290.43-47.79 291.68-46.10L291.68-46.10L291.68-46.10Q292.94-44.41 293.20-41.96L293.20-41.96L293.20-41.96Q293.26-41.06 292.97-40.36L292.97-40.36L292.97-40.36Q292.68-39.67 292.17-39.20L292.17-39.20L292.17-39.20Q291.65-38.74 290.99-38.49L290.99-38.49L290.99-38.49Q290.33-38.25 289.65-38.25L289.65-38.25L289.65-38.25Q288.62-38.25 287.91-38.58L287.91-38.58L287.91-38.58Q287.20-38.90 286.75-39.38L286.75-39.38L286.75-39.38Q286.30-39.86 286.08-40.48L286.08-40.48L286.08-40.48Q285.85-41.09 285.79-41.67L285.79-41.67L285.79-41.67Q285.30-42.44 284.53-42.94L284.53-42.94L284.53-42.94Q283.75-43.44 282.80-43.75L282.80-43.75L282.80-43.75Q281.85-44.05 280.82-44.17L280.82-44.17L280.82-44.17Q279.79-44.28 278.82-44.28L278.82-44.28L278.82-44.28Q277.47-44.28 276.13-43.99L276.13-43.99L276.13-43.99Q274.80-43.70 273.70-43.05L273.70-43.05L273.70-43.05Q272.60-42.41 271.93-41.41L271.93-41.41L271.93-41.41Q271.25-40.41 271.25-38.96L271.25-38.96L271.25-38.96Q271.25-37.25 272.06-35.93L272.06-35.93L272.06-35.93Q272.86-34.61 274.09-33.58L274.09-33.58L274.09-33.58Q275.31-32.55 276.81-31.71L276.81-31.71L276.81-31.71Q278.31-30.87 279.73-30.16L279.73-30.16L279.73-30.16Q281.43-29.29 283.27-28.31L283.27-28.31L283.27-28.31Q285.11-27.33 286.86-26.18L286.86-26.18L286.86-26.18Q288.62-25.04 290.20-23.69L290.20-23.69L290.20-23.69Q291.78-22.33 292.97-20.67L292.97-20.67L292.97-20.67Q294.16-19.01 294.86-17.05L294.86-17.05L294.86-17.05Q295.55-15.08 295.55-12.70L295.55-12.70L295.55-12.70Q295.55-10.15 294.84-8.15L294.84-8.15L294.84-8.15Q294.13-6.16 292.91-4.64L292.91-4.64L292.91-4.64Q291.68-3.13 290.04-2.06L290.04-2.06L290.04-2.06Q288.40-1.00 286.49-0.32L286.49-0.32L286.49-0.32Q284.59 0.35 282.55 0.66L282.55 0.66L282.55 0.66Q280.50 0.97 278.47 0.97L278.47 0.97L278.47 0.97Q276.76 0.97 274.81 0.68L274.81 0.68L274.81 0.68Q272.86 0.39 270.96-0.24L270.96-0.24L270.96-0.24Q269.06-0.87 267.34-1.85L267.34-1.85L267.34-1.85Q265.61-2.84 264.31-4.24L264.31-4.24L264.31-4.24Q263.00-5.64 262.26-7.46L262.26-7.46L262.26-7.46Q261.52-9.28 261.58-11.57ZM315.79-44.41L315.79-44.41L315.79-44.41Q315.01-44.05 314.18-44.07L314.18-44.07L314.18-44.07Q313.34-44.09 312.65-44.42L312.65-44.42L312.65-44.42Q311.95-44.76 311.44-45.41L311.44-45.41L311.44-45.41Q310.92-46.05 310.79-46.95L310.79-46.95L310.79-46.95Q310.70-47.57 310.84-48.36L310.84-48.36L310.84-48.36Q310.99-49.15 311.23-49.97L311.23-49.97L311.23-49.97Q311.47-50.79 311.68-51.58L311.68-51.58L311.68-51.58Q311.89-52.37 311.95-53.01L311.95-53.01L311.95-53.01Q312.05-54.46 312.82-55.43L312.82-55.43L312.82-55.43Q313.60-56.40 315.14-56.62L315.14-56.62L315.14-56.62Q316.27-56.82 317.27-56.49L317.27-56.49L317.27-56.49Q318.27-56.17 318.75-55.08L318.75-55.08L318.75-55.08Q318.91-54.72 319.03-54.25L319.03-54.25L319.03-54.25Q319.14-53.79 319.20-53.43L319.20-53.43L319.20-53.43Q319.24-53.11 319.19-52.63L319.19-52.63L319.19-52.63Q319.14-52.14 319.01-51.61L319.01-51.61L319.01-51.61Q318.88-51.08 318.70-50.55L318.70-50.55L318.70-50.55Q318.53-50.02 318.37-49.63L318.37-49.63L318.37-49.63Q318.11-49.08 318.03-48.45L318.03-48.45L318.03-48.45Q317.95-47.82 317.85-47.31L317.85-47.31L317.85-47.31Q317.75-46.79 317.66-46.37L317.66-46.37L317.66-46.37Q317.56-45.96 317.35-45.60L317.35-45.60L317.35-45.60Q317.14-45.25 316.77-44.96L316.77-44.96L316.77-44.96Q316.40-44.67 315.79-44.41ZM310.28-2.42L310.28-2.42L310.28-2.42Q310.28-3.22 310.36-3.77L310.36-3.77L310.36-3.77Q310.44-4.32 310.52-4.98L310.52-4.98L310.52-4.98Q310.60-5.64 310.68-6.54L310.68-6.54L310.68-6.54Q310.76-7.44 310.76-8.99L310.76-8.99L310.76-8.99Q310.76-14.76 310.73-20.45L310.73-20.45L310.73-20.45Q310.70-26.14 310.57-32.48L310.57-32.48L310.57-32.48Q310.08-32.45 309.47-32.42L309.47-32.42L309.47-32.42Q308.86-32.39 308.20-32.37L308.20-32.37L308.20-32.37Q307.54-32.36 306.93-32.34L306.93-32.34L306.93-32.34Q306.31-32.32 305.83-32.32L305.83-32.32L305.83-32.32Q305.25-32.32 304.65-32.50L304.65-32.50L304.65-32.50Q304.06-32.68 303.57-33.10L303.57-33.10L303.57-33.10Q303.09-33.52 302.77-34.18L302.77-34.18L302.77-34.18Q302.45-34.84 302.45-35.80L302.45-35.80L302.45-35.80Q302.45-37.51 303.36-38.40L303.36-38.40L303.36-38.40Q304.28-39.28 305.54-39.28L305.54-39.28L305.54-39.28Q306.76-39.28 307.97-39.17L307.97-39.17L307.97-39.17Q309.18-39.06 310.34-39.06L310.34-39.06L310.34-39.06Q311.53-39.06 312.73-39.17L312.73-39.17L312.73-39.17Q313.92-39.28 314.98-39.28L314.98-39.28L314.98-39.28Q316.63-39.28 317.33-38.41L317.33-38.41L317.33-38.41Q318.04-37.54 318.04-36.00L318.04-36.00L318.04-36.00Q318.04-34.68 317.82-33.40L317.82-33.40L317.82-33.40Q317.59-32.13 317.59-30.68L317.59-30.68L317.59-30.68Q317.59-27.78 317.56-24.85L317.56-24.85L317.56-24.85Q317.53-21.91 317.51-18.88L317.51-18.88L317.51-18.88Q317.50-15.86 317.48-12.70L317.48-12.70L317.48-12.70Q317.46-9.54 317.53-6.19L317.53-6.19L317.53-6.19Q318.04-6.22 318.46-6.35L318.46-6.35L318.46-6.35Q318.88-6.48 319.27-6.62L319.27-6.62L319.27-6.62Q319.66-6.77 320.09-6.88L320.09-6.88L320.09-6.88Q320.53-6.99 321.07-6.99L321.07-6.99L321.07-6.99Q321.91-6.99 322.44-6.80L322.44-6.80L322.44-6.80Q322.97-6.61 323.30-6.27L323.30-6.27L323.30-6.27Q323.62-5.93 323.78-5.43L323.78-5.43L323.78-5.43Q323.94-4.93 324.07-4.35L324.07-4.35L324.07-4.35Q324.30-2.84 323.33-1.93L323.33-1.93L323.33-1.93Q322.36-1.03 320.69-0.52L320.69-0.52L320.69-0.52Q319.72-0.26 318.70 0L318.70 0L318.70 0Q317.69 0.26 316.79 0.47L316.79 0.47L316.79 0.47Q315.88 0.68 315.14 0.81L315.14 0.81L315.14 0.81Q314.40 0.93 313.98 0.93L313.98 0.93L313.98 0.93Q312.08 0.93 311.18 0.05L311.18 0.05L311.18 0.05Q310.28-0.84 310.28-2.42ZM336.19-2.35L336.19-2.35L336.19-2.35Q336.19-4.00 336.43-5.58L336.43-5.58L336.43-5.58Q336.67-7.15 336.67-8.93L336.67-8.93L336.67-8.93Q336.67-10.25 336.65-11.54L336.65-11.54L336.65-11.54Q336.64-12.83 336.62-14.28L336.62-14.28L336.62-14.28Q336.61-15.73 336.57-17.45L336.57-17.45L336.57-17.45Q336.54-19.17 336.49-21.37L336.49-21.37L336.49-21.37Q336.45-23.56 336.38-26.33L336.38-26.33L336.38-26.33Q336.32-29.10 336.25-32.68L336.25-32.68L336.25-32.68Q335.83-32.61 335.30-32.56L335.30-32.56L335.30-32.56Q334.77-32.52 333.96-32.52L333.96-32.52L333.96-32.52Q333.38-32.52 332.77-32.71L332.77-32.71L332.77-32.71Q332.16-32.90 331.68-33.31L331.68-33.31L331.68-33.31Q331.19-33.71 330.87-34.37L330.87-34.37L330.87-34.37Q330.55-35.03 330.55-36.00L330.55-36.00L330.55-36.00Q330.55-37.74 331.45-38.62L331.45-38.62L331.45-38.62Q332.35-39.51 333.64-39.51L333.64-39.51L333.64-39.51Q334.16-39.51 334.64-39.38L334.64-39.38L334.64-39.38Q335.12-39.25 335.67-39.25L335.67-39.25L335.67-39.25Q336.96-39.25 338.23-39.38L338.23-39.38L338.23-39.38Q339.51-39.51 340.92-39.51L340.92-39.51L340.92-39.51Q342.31-39.51 342.84-38.64L342.84-38.64L342.84-38.64Q343.37-37.77 343.37-36.19L343.37-36.19L343.37-35.55L343.37-35.55Q345.92-37.67 348.76-38.69L348.76-38.69L348.76-38.69Q351.59-39.70 354.04-39.70L354.04-39.70L354.04-39.70Q358.07-39.70 361.20-38.54L361.20-38.54L361.20-38.54Q364.32-37.38 366.51-35.09L366.51-35.09L366.51-35.09Q367.87-36.19 369.35-37.06L369.35-37.06L369.35-37.06Q370.83-37.93 372.33-38.51L372.33-38.51L372.33-38.51Q373.83-39.09 375.28-39.40L375.28-39.40L375.28-39.40Q376.73-39.70 378.05-39.70L378.05-39.70L378.05-39.70Q382.11-39.70 385.43-38.49L385.43-38.49L385.43-38.49Q388.75-37.29 391.12-34.93L391.12-34.93L391.12-34.93Q393.49-32.58 394.78-29.15L394.78-29.15L394.78-29.15Q396.06-25.72 396.06-21.24L396.06-21.24L396.06-21.24Q396.06-19.82 395.89-18.03L395.89-18.03L395.89-18.03Q395.71-16.24 395.39-14.36L395.39-14.36L395.39-14.36Q395.07-12.47 394.61-10.65L394.61-10.65L394.61-10.65Q394.16-8.83 393.65-7.38L393.65-7.38L393.65-7.38Q394.07-7.51 394.32-7.54L394.32-7.54L394.32-7.54Q394.58-7.57 394.78-7.57L394.78-7.57L394.78-7.57Q395.90-7.57 396.58-7.15L396.58-7.15L396.58-7.15Q397.26-6.74 397.63-6.16L397.63-6.16L397.63-6.16Q398.00-5.58 398.11-4.95L398.11-4.95L398.11-4.95Q398.22-4.32 398.22-3.90L398.22-3.90L398.22-3.90Q398.22-2.90 397.87-2.27L397.87-2.27L397.87-2.27Q397.51-1.64 396.63-1.21L396.63-1.21L396.63-1.21Q395.74-0.77 394.24-0.42L394.24-0.42L394.24-0.42Q392.75-0.06 390.46 0.42L390.46 0.42L390.46 0.42Q389.46 0.68 388.83 0.84L388.83 0.84L388.83 0.84Q388.20 1.00 387.69 1.00L387.69 1.00L387.69 1.00Q386.65 1.00 385.91 0.69L385.91 0.69L385.91 0.69Q385.17 0.39 384.70-0.11L384.70-0.11L384.70-0.11Q384.24-0.61 384.01-1.31L384.01-1.31L384.01-1.31Q383.79-2.00 383.79-2.77L383.79-2.77L383.79-2.77Q383.79-3.61 384.24-4.66L384.24-4.66L384.24-4.66Q384.69-5.70 385.43-6.54L385.43-6.54L385.43-6.54Q386.17-7.77 386.78-9.52L386.78-9.52L386.78-9.52Q387.40-11.28 387.83-13.28L387.83-13.28L387.83-13.28Q388.27-15.28 388.49-17.34L388.49-17.34L388.49-17.34Q388.72-19.40 388.72-21.24L388.72-21.24L388.72-21.24Q388.72-23.82 388.09-25.94L388.09-25.94L388.09-25.94Q387.46-28.07 386.12-29.58L386.12-29.58L386.12-29.58Q384.79-31.10 382.74-31.94L382.74-31.94L382.74-31.94Q380.69-32.77 377.89-32.77L377.89-32.77L377.89-32.77Q376.47-32.77 375.36-32.56L375.36-32.56L375.36-32.56Q374.25-32.36 373.30-31.97L373.30-31.97L373.30-31.97Q372.35-31.58 371.51-31.00L371.51-31.00L371.51-31.00Q370.67-30.42 369.83-29.65L369.83-29.65L369.83-29.65Q371.15-26.04 371.15-21.24L371.15-21.24L371.15-21.24Q371.15-19.79 370.96-17.95L370.96-17.95L370.96-17.95Q370.77-16.11 370.41-14.18L370.41-14.18L370.41-14.18Q370.06-12.25 369.51-10.38L369.51-10.38L369.51-10.38Q368.96-8.51 368.29-6.96L368.29-6.96L368.29-6.96Q368.80-7.06 369.35-7.27L369.35-7.27L369.35-7.27Q369.90-7.48 370.54-7.48L370.54-7.48L370.54-7.48Q371.60-7.48 372.27-7.06L372.27-7.06L372.27-7.06Q372.93-6.64 373.26-6.04L373.26-6.04L373.26-6.04Q373.60-5.45 373.72-4.75L373.72-4.75L373.72-4.75Q373.83-4.06 373.83-3.51L373.83-3.51L373.83-3.51Q373.83-2.48 373.43-1.89L373.43-1.89L373.43-1.89Q373.02-1.29 372.38-0.95L372.38-0.95L372.38-0.95Q371.73-0.61 370.90-0.47L370.90-0.47L370.90-0.47Q370.06-0.32 369.19-0.23L369.19-0.23L369.19-0.23Q368.32-0.13 367.50 0.02L367.50 0.02L367.50 0.02Q366.67 0.16 366.03 0.48L366.03 0.48L366.03 0.48Q365.93 0.55 365.58 0.63L365.58 0.63L365.58 0.63Q365.22 0.71 364.82 0.79L364.82 0.79L364.82 0.79Q364.42 0.87 364.02 0.93L364.02 0.93L364.02 0.93Q363.61 1.00 363.39 1.00L363.39 1.00L363.39 1.00Q362.32 1.00 361.58 0.61L361.58 0.61L361.58 0.61Q360.84 0.23 360.37-0.39L360.37-0.39L360.37-0.39Q359.91-1.00 359.70-1.74L359.70-1.74L359.70-1.74Q359.49-2.48 359.49-3.19L359.49-3.19L359.49-3.19Q359.49-4.03 359.75-4.88L359.75-4.88L359.75-4.88Q360.00-5.74 360.45-6.48L360.45-6.48L360.45-6.48Q361.16-7.77 361.78-9.56L361.78-9.56L361.78-9.56Q362.39-11.34 362.82-13.33L362.82-13.33L362.82-13.33Q363.26-15.31 363.52-17.35L363.52-17.35L363.52-17.35Q363.77-19.40 363.77-21.24L363.77-21.24L363.77-21.24Q363.77-23.82 363.27-25.94L363.27-25.94L363.27-25.94Q362.77-28.07 361.61-29.58L361.61-29.58L361.61-29.58Q360.45-31.10 358.57-31.94L358.57-31.94L358.57-31.94Q356.68-32.77 353.91-32.77L353.91-32.77L353.91-32.77Q351.17-32.77 348.55-31.60L348.55-31.60L348.55-31.60Q345.92-30.42 343.37-27.84L343.37-27.84L343.37-27.84Q343.37-26.39 343.36-24.25L343.36-24.25L343.36-24.25Q343.34-22.11 343.34-19.72L343.34-19.72L343.34-19.72Q343.34-17.34 343.34-14.99L343.34-14.99L343.34-14.99Q343.34-12.63 343.36-10.76L343.36-10.76L343.36-10.76Q343.37-8.89 343.39-7.75L343.39-7.75L343.39-7.75Q343.41-6.61 343.44-6.70L343.44-6.70L343.44-6.70Q344.02-6.86 344.39-6.98L344.39-6.98L344.39-6.98Q344.76-7.09 345.00-7.15L345.00-7.15L345.00-7.15Q345.24-7.22 345.37-7.23L345.37-7.23L345.37-7.23Q345.50-7.25 345.66-7.25L345.66-7.25L345.66-7.25Q347.40-7.25 348.30-6.40L348.30-6.40L348.30-6.40Q349.21-5.54 349.21-3.90L349.21-3.90L349.21-3.90Q349.21-2.67 348.72-1.97L348.72-1.97L348.72-1.97Q348.24-1.26 347.50-0.84L347.50-0.84L347.50-0.84Q346.76-0.42 345.82-0.24L345.82-0.24L345.82-0.24Q344.89-0.06 344.02 0.03L344.02 0.03L344.02 0.03Q343.47 0.10 342.89 0.26L342.89 0.26L342.89 0.26Q342.31 0.42 341.73 0.58L341.73 0.58L341.73 0.58Q341.15 0.74 340.57 0.87L340.57 0.87L340.57 0.87Q339.99 1.00 339.51 1.00L339.51 1.00L339.51 1.00Q337.61 1.00 336.90 0.11L336.90 0.11L336.90 0.11Q336.19-0.77 336.19-2.35Z" fill="url(#editing-shiny-gradient)"></path></g></g><g filter="url(#editing-shiny2)"><g transform="translate(47.70002460479736, 104.21499633789062)"><path d="M6.61-3.58L6.61-3.58L6.61-3.58Q6.61-4.29 6.67-4.96L6.67-4.96L6.67-4.96Q6.74-5.64 6.80-6.22L6.80-6.22L6.80-6.22Q6.80-10.70 6.80-14.47L6.80-14.47L6.80-14.47Q6.80-18.24 6.80-21.51L6.80-21.51L6.80-21.51Q6.80-24.78 6.80-27.65L6.80-27.65L6.80-27.65Q6.80-30.52 6.80-33.21L6.80-33.21L6.80-33.21Q6.80-35.90 6.82-38.49L6.82-38.49L6.82-38.49Q6.83-41.09 6.83-43.80L6.83-43.80L6.83-43.80Q6.67-44.25 6.53-45.05L6.53-45.05L6.53-45.05Q6.38-45.86 6.38-46.57L6.38-46.57L6.38-46.57Q6.38-47.24 6.59-47.92L6.59-47.92L6.59-47.92Q6.80-48.60 7.23-49.13L7.23-49.13L7.23-49.13Q7.67-49.66 8.31-49.98L8.31-49.98L8.31-49.98Q8.96-50.31 9.80-50.31L9.80-50.31L9.80-50.31Q11.15-50.31 12.54-50.14L12.54-50.14L12.54-50.14Q13.92-49.98 15.66-49.98L15.66-49.98L15.66-49.98Q17.11-49.98 18.56-50.13L18.56-50.13L18.56-50.13Q20.01-50.27 21.66-50.31L21.66-50.31L21.66-50.31Q26.52-50.31 30.47-49.34L30.47-49.34L30.47-49.34Q34.42-48.37 37.21-46.34L37.21-46.34L37.21-46.34Q39.99-44.31 41.51-41.17L41.51-41.17L41.51-41.17Q43.02-38.03 43.02-33.68L43.02-33.68L43.02-33.68Q43.02-29.55 41.88-26.35L41.88-26.35L41.88-26.35Q40.73-23.14 38.95-20.75L38.95-20.75L38.95-20.75Q37.16-18.37 34.95-16.77L34.95-16.77L34.95-16.77Q32.74-15.18 30.65-14.34L30.65-14.34L30.65-14.34Q30.94-12.60 31.57-11.07L31.57-11.07L31.57-11.07Q32.19-9.54 33.18-8.38L33.18-8.38L33.18-8.38Q34.16-7.22 35.48-6.54L35.48-6.54L35.48-6.54Q36.80-5.87 38.45-5.87L38.45-5.87L38.45-5.87Q39.67-5.87 40.69-6.25L40.69-6.25L40.69-6.25Q41.70-6.64 42.44-7.77L42.44-7.77L42.44-7.77Q42.89-8.41 43.54-8.91L43.54-8.91L43.54-8.91Q44.18-9.41 45.18-9.41L45.18-9.41L45.18-9.41Q46.92-9.41 47.89-8.44L47.89-8.44L47.89-8.44Q48.86-7.48 48.86-5.99L48.86-5.99L48.86-5.99Q48.86-4.61 48.07-3.35L48.07-3.35L48.07-3.35Q47.28-2.09 45.84-1.14L45.84-1.14L45.84-1.14Q44.41-0.19 42.38 0.37L42.38 0.37L42.38 0.37Q40.35 0.93 37.87 0.93L37.87 0.93L37.87 0.93Q35.58 0.93 33.73 0.27L33.73 0.27L33.73 0.27Q31.87-0.39 30.41-1.50L30.41-1.50L30.41-1.50Q28.94-2.61 27.81-4.04L27.81-4.04L27.81-4.04Q26.68-5.48 25.88-7.04L25.88-7.04L25.88-7.04Q25.07-8.60 24.56-10.15L24.56-10.15L24.56-10.15Q24.04-11.70 23.75-13.05L23.75-13.05L23.75-13.05Q23.36-13.05 22.72-13.05L22.72-13.05L22.72-13.05Q22.08-13.05 21.40-13.05L21.40-13.05L21.40-13.05Q20.72-13.05 20.06-13.07L20.06-13.07L20.06-13.07Q19.40-13.08 18.98-13.08L18.98-13.08L18.98-13.08Q18.05-13.12 16.68-13.13L16.68-13.13L16.68-13.13Q15.31-13.15 14.18-13.15L14.18-13.15L14.18-8.44L14.18-8.44Q14.24-6.93 14.57-5.49L14.57-5.49L14.57-5.49Q14.89-4.06 14.89-2.55L14.89-2.55L14.89-2.55Q14.89-1.61 14.52-0.97L14.52-0.97L14.52-0.97Q14.15-0.32 13.57 0.11L13.57 0.11L13.57 0.11Q12.99 0.55 12.31 0.74L12.31 0.74L12.31 0.74Q11.63 0.93 11.02 0.93L11.02 0.93L11.02 0.93Q10.05 0.93 9.25 0.60L9.25 0.60L9.25 0.60Q8.44 0.26 7.86-0.34L7.86-0.34L7.86-0.34Q7.28-0.93 6.94-1.76L6.94-1.76L6.94-1.76Q6.61-2.58 6.61-3.58ZM14.15-20.08L14.15-20.08L14.15-20.08Q14.99-20.04 16.11-20.01L16.11-20.01L16.11-20.01Q17.24-19.98 18.27-19.95L18.27-19.95L18.27-19.95Q19.30-19.92 20.11-19.90L20.11-19.90L20.11-19.90Q20.92-19.88 21.14-19.88L21.14-19.88L21.14-19.88Q25.49-19.88 28.28-21.08L28.28-21.08L28.28-21.08Q31.07-22.27 32.65-24.23L32.65-24.23L32.65-24.23Q34.22-26.20 34.82-28.75L34.82-28.75L34.82-28.75Q35.42-31.29 35.42-33.97L35.42-33.97L35.42-33.97Q35.42-36.32 34.68-37.95L34.68-37.95L34.68-37.95Q33.93-39.57 32.71-40.64L32.71-40.64L32.71-40.64Q31.49-41.70 29.94-42.31L29.94-42.31L29.94-42.31Q28.39-42.93 26.80-43.22L26.80-43.22L26.80-43.22Q25.20-43.51 23.67-43.57L23.67-43.57L23.67-43.57Q22.14-43.63 20.98-43.63L20.98-43.63L20.98-43.63Q19.34-43.63 17.64-43.59L17.64-43.59L17.64-43.59Q15.95-43.54 13.99-43.51L13.99-43.51L13.99-43.51Q13.92-42.28 13.91-41.28L13.91-41.28L13.91-41.28Q13.89-40.28 13.87-39.33L13.87-39.33L13.87-39.33Q13.86-38.38 13.86-37.40L13.86-37.40L13.86-37.40Q13.86-36.42 13.86-35.19L13.86-35.19L13.86-35.19Q13.86-33 13.87-31.11L13.87-31.11L13.87-31.11Q13.89-29.23 13.92-27.44L13.92-27.44L13.92-27.44Q13.95-25.65 14.00-23.85L14.00-23.85L14.00-23.85Q14.05-22.04 14.15-20.08ZM29.23-13.86L29.26-13.89L29.26-13.89Q29.23-13.89 29.23-13.86L29.23-13.86ZM29.23-13.86L29.20-13.86L29.23-13.86ZM62.17-14.53L62.17-14.53L62.17-14.53Q62.78-12.12 63.99-10.49L63.99-10.49L63.99-10.49Q65.19-8.86 66.71-7.86L66.71-7.86L66.71-7.86Q68.22-6.86 69.92-6.43L69.92-6.43L69.92-6.43Q71.61-5.99 73.22-5.99L73.22-5.99L73.22-5.99Q75.73-5.99 77.70-6.43L77.70-6.43L77.70-6.43Q79.66-6.86 81.07-7.49L81.07-7.49L81.07-7.49Q82.47-8.12 83.34-8.80L83.34-8.80L83.34-8.80Q84.21-9.47 84.56-9.99L84.56-9.99L84.56-9.99Q84.88-10.47 85.29-10.91L85.29-10.91L85.29-10.91Q85.69-11.34 86.16-11.68L86.16-11.68L86.16-11.68Q86.63-12.02 87.09-12.21L87.09-12.21L87.09-12.21Q87.56-12.41 87.98-12.41L87.98-12.41L87.98-12.41Q89.59-12.41 90.48-11.46L90.48-11.46L90.48-11.46Q91.36-10.51 91.36-8.89L91.36-8.89L91.36-8.89Q91.36-8.28 90.91-7.35L90.91-7.35L90.91-7.35Q90.46-6.41 89.24-5.29L89.24-5.29L89.24-5.29Q87.88-4.03 86.22-2.90L86.22-2.90L86.22-2.90Q84.56-1.77 82.56-0.92L82.56-0.92L82.56-0.92Q80.57-0.06 78.23 0.44L78.23 0.44L78.23 0.44Q75.89 0.93 73.19 0.93L73.19 0.93L73.19 0.93Q70.00 0.93 67.35 0.08L67.35 0.08L67.35 0.08Q64.71-0.77 62.62-2.24L62.62-2.24L62.62-2.24Q60.52-3.71 58.97-5.64L58.97-5.64L58.97-5.64Q57.43-7.57 56.40-9.76L56.40-9.76L56.40-9.76Q55.37-11.96 54.85-14.28L54.85-14.28L54.85-14.28Q54.33-16.60 54.33-18.79L54.33-18.79L54.33-18.79Q54.33-23.56 55.88-27.41L55.88-27.41L55.88-27.41Q57.43-31.26 60.13-34.00L60.13-34.00L60.13-34.00Q62.84-36.74 66.55-38.22L66.55-38.22L66.55-38.22Q70.25-39.70 74.57-39.70L74.57-39.70L74.57-39.70Q77.67-39.70 80.37-38.78L80.37-38.78L80.37-38.78Q83.08-37.87 85.19-36.21L85.19-36.21L85.19-36.21Q87.30-34.55 88.74-32.24L88.74-32.24L88.74-32.24Q90.17-29.94 90.75-27.17L90.75-27.17L90.75-27.17Q91.39-26.62 91.70-25.73L91.70-25.73L91.70-25.73Q92.01-24.85 92.01-23.98L92.01-23.98L92.01-23.98Q92.01-22.53 91.02-21.61L91.02-21.61L91.02-21.61Q90.04-20.69 88.56-20.33L88.56-20.33L88.56-20.33Q85.30-19.50 82.05-18.79L82.05-18.79L82.05-18.79Q78.79-18.08 75.51-17.40L75.51-17.40L75.51-17.40Q72.22-16.73 68.88-16.02L68.88-16.02L68.88-16.02Q65.55-15.31 62.17-14.53ZM61.62-20.50L61.62-20.50L61.62-20.50Q67.10-21.79 72.70-22.91L72.70-22.91L72.70-22.91Q78.31-24.04 84.11-25.43L84.11-25.43L84.11-25.43Q83.56-26.91 82.63-28.25L82.63-28.25L82.63-28.25Q81.69-29.58 80.44-30.58L80.44-30.58L80.44-30.58Q79.18-31.58 77.65-32.16L77.65-32.16L77.65-32.16Q76.12-32.74 74.35-32.74L74.35-32.74L74.35-32.74Q71.61-32.74 69.37-31.86L69.37-31.86L69.37-31.86Q67.13-30.97 65.48-29.37L65.48-29.37L65.48-29.37Q63.84-27.78 62.84-25.51L62.84-25.51L62.84-25.51Q61.84-23.24 61.62-20.50ZM99.68-19.34L99.68-19.34L99.68-19.34Q99.68-23.72 101.14-27.44L101.14-27.44L101.14-27.44Q102.61-31.16 105.20-33.89L105.20-33.89L105.20-33.89Q107.80-36.61 111.34-38.16L111.34-38.16L111.34-38.16Q114.89-39.70 119.04-39.70L119.04-39.70L119.04-39.70Q120.91-39.70 122.75-39.33L122.75-39.33L122.75-39.33Q124.59-38.96 126.25-38.24L126.25-38.24L126.25-38.24Q127.91-37.51 129.33-36.45L129.33-36.45L129.33-36.45Q130.74-35.38 131.81-34.00L131.81-34.00L131.81-34.00Q131.81-34.84 131.81-36.38L131.81-36.38L131.81-36.38Q131.81-37.93 131.79-40.06L131.79-40.06L131.79-40.06Q131.77-42.18 131.74-44.79L131.74-44.79L131.74-44.79Q131.71-47.41 131.68-50.34L131.68-50.34L128.94-50.34L128.94-50.34Q128.20-50.34 127.49-50.18L127.49-50.18L127.49-50.18Q126.78-50.02 125.97-50.02L125.97-50.02L125.97-50.02Q125.39-50.02 124.80-50.29L124.80-50.29L124.80-50.29Q124.20-50.56 123.73-51.06L123.73-51.06L123.73-51.06Q123.27-51.56 122.96-52.29L122.96-52.29L122.96-52.29Q122.65-53.01 122.65-53.95L122.65-53.95L122.65-53.95Q122.65-55.62 123.52-56.53L123.52-56.53L123.52-56.53Q124.39-57.43 125.72-57.43L125.72-57.43L125.72-57.43Q126.04-57.43 126.49-57.41L126.49-57.41L126.49-57.41Q126.94-57.40 127.52-57.23L127.52-57.23L127.52-57.23Q129.65-57.20 131.81-57.28L131.81-57.28L131.81-57.28Q133.97-57.36 136.45-57.40L136.45-57.40L136.45-57.40Q137.80-57.40 138.57-56.46L138.57-56.46L138.57-56.46Q139.35-55.53 139.35-53.98L139.35-53.98L139.35-53.98Q139.35-52.88 139.06-52.27L139.06-52.27L139.06-52.27Q138.99-50.18 138.96-47.10L138.96-47.10L138.96-47.10Q138.93-44.02 138.90-40.54L138.90-40.54L138.90-40.54Q138.86-37.06 138.85-33.45L138.85-33.45L138.85-33.45Q138.83-29.84 138.82-26.70L138.82-26.70L138.82-26.70Q138.80-23.56 138.80-21.14L138.80-21.14L138.80-21.14Q138.80-18.72 138.80-17.63L138.80-17.63L138.80-17.63Q138.80-14.47 138.85-11.94L138.85-11.94L138.85-11.94Q138.90-9.41 139.03-7.96L139.03-7.96L139.61-8.31L139.61-8.31Q140.28-8.70 140.91-8.99L140.91-8.99L140.91-8.99Q141.54-9.28 142.28-9.35L142.28-9.35L142.28-9.35Q142.83-9.41 143.41-9.23L143.41-9.23L143.41-9.23Q143.99-9.06 144.47-8.65L144.47-8.65L144.47-8.65Q144.96-8.25 145.28-7.57L145.28-7.57L145.28-7.57Q145.60-6.90 145.60-5.93L145.60-5.93L145.60-5.93Q145.60-4.58 144.87-3.75L144.87-3.75L144.87-3.75Q144.15-2.93 143.38-2.61L143.38-2.61L143.38-2.61Q142.60-2.26 141.89-1.89L141.89-1.89L141.89-1.89Q141.18-1.51 140.44-1.13L140.44-1.13L140.44-1.13Q139.35-0.55 138.33-0.03L138.33-0.03L138.33-0.03Q137.32 0.48 136.54 0.48L136.54 0.48L136.54 0.48Q135.00 0.48 134.05-0.98L134.05-0.98L134.05-0.98Q133.10-2.45 132.61-4.90L132.61-4.90L132.61-4.90Q131.32-3.58 129.68-2.51L129.68-2.51L129.68-2.51Q128.04-1.45 126.17-0.68L126.17-0.68L126.17-0.68Q124.30 0.10 122.25 0.52L122.25 0.52L122.25 0.52Q120.21 0.93 118.14 0.93L118.14 0.93L118.14 0.93Q113.95 0.93 110.55-0.64L110.55-0.64L110.55-0.64Q107.15-2.22 104.74-4.96L104.74-4.96L104.74-4.96Q102.32-7.70 101.00-11.39L101.00-11.39L101.00-11.39Q99.68-15.08 99.68-19.34ZM106.86-19.34L106.86-19.34L106.86-19.34Q106.86-16.79 107.67-14.39L107.67-14.39L107.67-14.39Q108.47-11.99 110.01-10.12L110.01-10.12L110.01-10.12Q111.54-8.25 113.73-7.12L113.73-7.12L113.73-7.12Q115.92-5.99 118.69-5.99L118.69-5.99L118.69-5.99Q120.82-5.99 122.94-6.69L122.94-6.69L122.94-6.69Q125.07-7.38 126.86-8.65L126.86-8.65L126.86-8.65Q128.65-9.93 129.97-11.75L129.97-11.75L129.97-11.75Q131.29-13.57 131.77-15.86L131.77-15.86L131.77-15.86Q131.77-17.18 131.77-18.01L131.77-18.01L131.77-18.01Q131.77-18.85 131.76-19.45L131.76-19.45L131.76-19.45Q131.74-20.04 131.74-20.54L131.74-20.54L131.74-20.54Q131.74-21.04 131.74-21.69L131.74-21.69L131.74-21.69Q131.23-24.01 130.08-26.02L130.08-26.02L130.08-26.02Q128.94-28.04 127.29-29.52L127.29-29.52L127.29-29.52Q125.65-31.00 123.60-31.86L123.60-31.86L123.60-31.86Q121.56-32.71 119.27-32.71L119.27-32.71L119.27-32.71Q116.60-32.71 114.32-31.74L114.32-31.74L114.32-31.74Q112.05-30.78 110.39-29.02L110.39-29.02L110.39-29.02Q108.73-27.26 107.80-24.80L107.80-24.80L107.80-24.80Q106.86-22.33 106.86-19.34ZM150.53-19.34L150.53-19.34L150.53-19.34Q150.53-23.72 152.00-27.44L152.00-27.44L152.00-27.44Q153.46-31.16 156.06-33.89L156.06-33.89L156.06-33.89Q158.65-36.61 162.20-38.16L162.20-38.16L162.20-38.16Q165.74-39.70 169.90-39.70L169.90-39.70L169.90-39.70Q171.77-39.70 173.60-39.33L173.60-39.33L173.60-39.33Q175.44-38.96 177.10-38.24L177.10-38.24L177.10-38.24Q178.76-37.51 180.18-36.45L180.18-36.45L180.18-36.45Q181.60-35.38 182.66-34.00L182.66-34.00L182.66-34.00Q182.66-34.84 182.66-36.38L182.66-36.38L182.66-36.38Q182.66-37.93 182.64-40.06L182.64-40.06L182.64-40.06Q182.63-42.18 182.60-44.79L182.60-44.79L182.60-44.79Q182.56-47.41 182.53-50.34L182.53-50.34L179.79-50.34L179.79-50.34Q179.05-50.34 178.34-50.18L178.34-50.18L178.34-50.18Q177.63-50.02 176.83-50.02L176.83-50.02L176.83-50.02Q176.25-50.02 175.65-50.29L175.65-50.29L175.65-50.29Q175.05-50.56 174.59-51.06L174.59-51.06L174.59-51.06Q174.12-51.56 173.81-52.29L173.81-52.29L173.81-52.29Q173.51-53.01 173.51-53.95L173.51-53.95L173.51-53.95Q173.51-55.62 174.38-56.53L174.38-56.53L174.38-56.53Q175.25-57.43 176.57-57.43L176.57-57.43L176.57-57.43Q176.89-57.43 177.34-57.41L177.34-57.41L177.34-57.41Q177.79-57.40 178.37-57.23L178.37-57.23L178.37-57.23Q180.50-57.20 182.66-57.28L182.66-57.28L182.66-57.28Q184.82-57.36 187.30-57.40L187.30-57.40L187.30-57.40Q188.65-57.40 189.43-56.46L189.43-56.46L189.43-56.46Q190.20-55.53 190.20-53.98L190.20-53.98L190.20-53.98Q190.20-52.88 189.91-52.27L189.91-52.27L189.91-52.27Q189.85-50.18 189.81-47.10L189.81-47.10L189.81-47.10Q189.78-44.02 189.75-40.54L189.75-40.54L189.75-40.54Q189.72-37.06 189.70-33.45L189.70-33.45L189.70-33.45Q189.69-29.84 189.67-26.70L189.67-26.70L189.67-26.70Q189.65-23.56 189.65-21.14L189.65-21.14L189.65-21.14Q189.65-18.72 189.65-17.63L189.65-17.63L189.65-17.63Q189.65-14.47 189.70-11.94L189.70-11.94L189.70-11.94Q189.75-9.41 189.88-7.96L189.88-7.96L190.46-8.31L190.46-8.31Q191.14-8.70 191.76-8.99L191.76-8.99L191.76-8.99Q192.39-9.28 193.13-9.35L193.13-9.35L193.13-9.35Q193.68-9.41 194.26-9.23L194.26-9.23L194.26-9.23Q194.84-9.06 195.33-8.65L195.33-8.65L195.33-8.65Q195.81-8.25 196.13-7.57L196.13-7.57L196.13-7.57Q196.45-6.90 196.45-5.93L196.45-5.93L196.45-5.93Q196.45-4.58 195.73-3.75L195.73-3.75L195.73-3.75Q195.00-2.93 194.23-2.61L194.23-2.61L194.23-2.61Q193.46-2.26 192.75-1.89L192.75-1.89L192.75-1.89Q192.04-1.51 191.30-1.13L191.30-1.13L191.30-1.13Q190.20-0.55 189.19-0.03L189.19-0.03L189.19-0.03Q188.17 0.48 187.40 0.48L187.40 0.48L187.40 0.48Q185.85 0.48 184.90-0.98L184.90-0.98L184.90-0.98Q183.95-2.45 183.47-4.90L183.47-4.90L183.47-4.90Q182.18-3.58 180.53-2.51L180.53-2.51L180.53-2.51Q178.89-1.45 177.02-0.68L177.02-0.68L177.02-0.68Q175.15 0.10 173.10 0.52L173.10 0.52L173.10 0.52Q171.06 0.93 169.00 0.93L169.00 0.93L169.00 0.93Q164.81 0.93 161.41-0.64L161.41-0.64L161.41-0.64Q158.01-2.22 155.59-4.96L155.59-4.96L155.59-4.96Q153.17-7.70 151.85-11.39L151.85-11.39L151.85-11.39Q150.53-15.08 150.53-19.34ZM157.72-19.34L157.72-19.34L157.72-19.34Q157.72-16.79 158.52-14.39L158.52-14.39L158.52-14.39Q159.33-11.99 160.86-10.12L160.86-10.12L160.86-10.12Q162.39-8.25 164.58-7.12L164.58-7.12L164.58-7.12Q166.77-5.99 169.54-5.99L169.54-5.99L169.54-5.99Q171.67-5.99 173.80-6.69L173.80-6.69L173.80-6.69Q175.92-7.38 177.71-8.65L177.71-8.65L177.71-8.65Q179.50-9.93 180.82-11.75L180.82-11.75L180.82-11.75Q182.14-13.57 182.63-15.86L182.63-15.86L182.63-15.86Q182.63-17.18 182.63-18.01L182.63-18.01L182.63-18.01Q182.63-18.85 182.61-19.45L182.61-19.45L182.61-19.45Q182.60-20.04 182.60-20.54L182.60-20.54L182.60-20.54Q182.60-21.04 182.60-21.69L182.60-21.69L182.60-21.69Q182.08-24.01 180.94-26.02L180.94-26.02L180.94-26.02Q179.79-28.04 178.15-29.52L178.15-29.52L178.15-29.52Q176.50-31.00 174.46-31.86L174.46-31.86L174.46-31.86Q172.41-32.71 170.12-32.71L170.12-32.71L170.12-32.71Q167.45-32.71 165.18-31.74L165.18-31.74L165.18-31.74Q162.91-30.78 161.25-29.02L161.25-29.02L161.25-29.02Q159.59-27.26 158.65-24.80L158.65-24.80L158.65-24.80Q157.72-22.33 157.72-19.34ZM213.08-44.41L213.08-44.41L213.08-44.41Q212.31-44.05 211.47-44.07L211.47-44.07L211.47-44.07Q210.63-44.09 209.94-44.42L209.94-44.42L209.94-44.42Q209.25-44.76 208.73-45.41L208.73-45.41L208.73-45.41Q208.22-46.05 208.09-46.95L208.09-46.95L208.09-46.95Q207.99-47.57 208.14-48.36L208.14-48.36L208.14-48.36Q208.28-49.15 208.52-49.97L208.52-49.97L208.52-49.97Q208.76-50.79 208.97-51.58L208.97-51.58L208.97-51.58Q209.18-52.37 209.25-53.01L209.25-53.01L209.25-53.01Q209.34-54.46 210.12-55.43L210.12-55.43L210.12-55.43Q210.89-56.40 212.44-56.62L212.44-56.62L212.44-56.62Q213.57-56.82 214.56-56.49L214.56-56.49L214.56-56.49Q215.56-56.17 216.05-55.08L216.05-55.08L216.05-55.08Q216.21-54.72 216.32-54.25L216.32-54.25L216.32-54.25Q216.43-53.79 216.50-53.43L216.50-53.43L216.50-53.43Q216.53-53.11 216.48-52.63L216.48-52.63L216.48-52.63Q216.43-52.14 216.30-51.61L216.30-51.61L216.30-51.61Q216.18-51.08 216.00-50.55L216.00-50.55L216.00-50.55Q215.82-50.02 215.66-49.63L215.66-49.63L215.66-49.63Q215.40-49.08 215.32-48.45L215.32-48.45L215.32-48.45Q215.24-47.82 215.14-47.31L215.14-47.31L215.14-47.31Q215.05-46.79 214.95-46.37L214.95-46.37L214.95-46.37Q214.85-45.96 214.65-45.60L214.65-45.60L214.65-45.60Q214.44-45.25 214.06-44.96L214.06-44.96L214.06-44.96Q213.69-44.67 213.08-44.41ZM207.57-2.42L207.57-2.42L207.57-2.42Q207.57-3.22 207.65-3.77L207.65-3.77L207.65-3.77Q207.73-4.32 207.81-4.98L207.81-4.98L207.81-4.98Q207.89-5.64 207.97-6.54L207.97-6.54L207.97-6.54Q208.05-7.44 208.05-8.99L208.05-8.99L208.05-8.99Q208.05-14.76 208.02-20.45L208.02-20.45L208.02-20.45Q207.99-26.14 207.86-32.48L207.86-32.48L207.86-32.48Q207.38-32.45 206.77-32.42L206.77-32.42L206.77-32.42Q206.15-32.39 205.49-32.37L205.49-32.37L205.49-32.37Q204.83-32.36 204.22-32.34L204.22-32.34L204.22-32.34Q203.61-32.32 203.12-32.32L203.12-32.32L203.12-32.32Q202.54-32.32 201.95-32.50L201.95-32.50L201.95-32.50Q201.35-32.68 200.87-33.10L200.87-33.10L200.87-33.10Q200.38-33.52 200.06-34.18L200.06-34.18L200.06-34.18Q199.74-34.84 199.74-35.80L199.74-35.80L199.74-35.80Q199.74-37.51 200.66-38.40L200.66-38.40L200.66-38.40Q201.58-39.28 202.83-39.28L202.83-39.28L202.83-39.28Q204.06-39.28 205.27-39.17L205.27-39.17L205.27-39.17Q206.48-39.06 207.64-39.06L207.64-39.06L207.64-39.06Q208.83-39.06 210.02-39.17L210.02-39.17L210.02-39.17Q211.21-39.28 212.28-39.28L212.28-39.28L212.28-39.28Q213.92-39.28 214.63-38.41L214.63-38.41L214.63-38.41Q215.34-37.54 215.34-36.00L215.34-36.00L215.34-36.00Q215.34-34.68 215.11-33.40L215.11-33.40L215.11-33.40Q214.89-32.13 214.89-30.68L214.89-30.68L214.89-30.68Q214.89-27.78 214.85-24.85L214.85-24.85L214.85-24.85Q214.82-21.91 214.81-18.88L214.81-18.88L214.81-18.88Q214.79-15.86 214.77-12.70L214.77-12.70L214.77-12.70Q214.76-9.54 214.82-6.19L214.82-6.19L214.82-6.19Q215.34-6.22 215.76-6.35L215.76-6.35L215.76-6.35Q216.18-6.48 216.56-6.62L216.56-6.62L216.56-6.62Q216.95-6.77 217.38-6.88L217.38-6.88L217.38-6.88Q217.82-6.99 218.37-6.99L218.37-6.99L218.37-6.99Q219.21-6.99 219.74-6.80L219.74-6.80L219.74-6.80Q220.27-6.61 220.59-6.27L220.59-6.27L220.59-6.27Q220.91-5.93 221.07-5.43L221.07-5.43L221.07-5.43Q221.24-4.93 221.36-4.35L221.36-4.35L221.36-4.35Q221.59-2.84 220.62-1.93L220.62-1.93L220.62-1.93Q219.66-1.03 217.98-0.52L217.98-0.52L217.98-0.52Q217.01-0.26 216.00 0L216.00 0L216.00 0Q214.98 0.26 214.08 0.47L214.08 0.47L214.08 0.47Q213.18 0.68 212.44 0.81L212.44 0.81L212.44 0.81Q211.70 0.93 211.28 0.93L211.28 0.93L211.28 0.93Q209.38 0.93 208.47 0.05L208.47 0.05L208.47 0.05Q207.57-0.84 207.57-2.42ZM233.45-2.45L233.58-9.35L233.38-32.07L229.49-32.03L229.49-32.03Q228.74-32.03 228.20-32.34L228.20-32.34L228.20-32.34Q227.65-32.65 227.28-33.18L227.28-33.18L227.28-33.18Q226.91-33.71 226.71-34.39L226.71-34.39L226.71-34.39Q226.52-35.06 226.52-35.80L226.52-35.80L226.52-35.80Q226.52-37.06 226.83-37.72L226.83-37.72L226.83-37.72Q227.13-38.38 227.71-38.69L227.71-38.69L227.71-38.69Q228.29-38.99 229.13-39.04L229.13-39.04L229.13-39.04Q229.97-39.09 231.06-39.09L231.06-39.09L233.35-39.09L233.35-40.28L233.35-40.28Q233.35-41.48 233.34-42.22L233.34-42.22L233.34-42.22Q233.32-42.96 233.32-43.22L233.32-43.22L233.32-43.22Q233.32-44.15 233.14-45.08L233.14-45.08L233.14-45.08Q232.97-46.02 232.97-46.99L232.97-46.99L232.97-46.99Q232.97-47.79 233.16-48.40L233.16-48.40L233.16-48.40Q233.35-49.02 233.82-49.45L233.82-49.45L233.82-49.45Q234.29-49.89 235.06-50.11L235.06-50.11L235.06-50.11Q235.83-50.34 236.96-50.34L236.96-50.34L236.96-50.34Q237.74-50.34 238.43-50.21L238.43-50.21L238.43-50.21Q239.12-50.08 239.65-49.71L239.65-49.71L239.65-49.71Q240.18-49.34 240.51-48.69L240.51-48.69L240.51-48.69Q240.83-48.05 240.83-47.02L240.83-47.02L240.83-47.02Q240.83-45.63 240.59-44.28L240.59-44.28L240.59-44.28Q240.35-42.93 240.38-41.48L240.38-41.48L240.38-39.12L240.38-39.12Q242.89-39.19 244.29-39.22L244.29-39.22L244.29-39.22Q245.70-39.25 246.57-39.28L246.57-39.28L246.57-39.28Q246.69-39.28 246.81-39.30L246.81-39.30L246.81-39.30Q246.92-39.32 247.02-39.32L247.02-39.32L247.02-39.32Q247.40-39.35 247.89-39.35L247.89-39.35L247.89-39.35Q248.37-39.35 248.66-39.35L248.66-39.35L248.66-39.35Q249.27-39.35 249.85-39.16L249.85-39.16L249.85-39.16Q250.43-38.96 250.87-38.51L250.87-38.51L250.87-38.51Q251.30-38.06 251.56-37.35L251.56-37.35L251.56-37.35Q251.82-36.64 251.82-35.64L251.82-35.64L251.82-35.64Q251.82-34.87 251.69-34.19L251.69-34.19L251.69-34.19Q251.56-33.52 251.21-33L251.21-33L251.21-33Q250.85-32.48 250.17-32.18L250.17-32.18L250.17-32.18Q249.50-31.87 248.43-31.87L248.43-31.87L248.43-31.87Q247.44-31.87 246.42-31.98L246.42-31.98L246.42-31.98Q245.41-32.10 244.34-32.13L244.34-32.13L240.44-32.10L240.67-6.67L240.67-6.67Q241.99-6.90 242.99-7.09L242.99-7.09L242.99-7.09Q243.99-7.28 244.86-7.48L244.86-7.48L244.86-7.48Q245.73-7.67 246.57-7.93L246.57-7.93L246.57-7.93Q247.40-8.19 248.40-8.57L248.40-8.57L248.40-8.57Q248.95-8.86 249.69-9.17L249.69-9.17L249.69-9.17Q250.43-9.47 251.24-9.47L251.24-9.47L251.24-9.47Q252.82-9.47 253.72-8.40L253.72-8.40L253.72-8.40Q254.62-7.32 254.62-5.58L254.62-5.58L254.62-5.58Q254.62-5.12 254.41-4.58L254.41-4.58L254.41-4.58Q254.20-4.03 253.78-3.50L253.78-3.50L253.78-3.50Q253.37-2.96 252.70-2.53L252.70-2.53L252.70-2.53Q252.04-2.09 251.14-1.90L251.14-1.90L251.14-1.90Q250.17-1.71 248.92-1.42L248.92-1.42L248.92-1.42Q247.66-1.13 246.28-0.81L246.28-0.81L246.28-0.81Q244.89-0.48 243.50-0.16L243.50-0.16L243.50-0.16Q242.12 0.16 240.89 0.40L240.89 0.40L240.89 0.40Q239.67 0.64 238.73 0.81L238.73 0.81L238.73 0.81Q237.80 0.97 237.32 0.93L237.32 0.93L237.32 0.93Q236.74 0.93 236.04 0.79L236.04 0.79L236.04 0.79Q235.35 0.64 234.77 0.27L234.77 0.27L234.77 0.27Q234.19-0.10 233.82-0.76L233.82-0.76L233.82-0.76Q233.45-1.42 233.45-2.45L233.45-2.45ZM261.58-11.57L261.58-11.57L261.58-11.57Q261.74-14.18 262.66-15.55L262.66-15.55L262.66-15.55Q263.58-16.92 265.90-16.92L265.90-16.92L265.90-16.92Q267.35-16.92 268.38-16.10L268.38-16.10L268.38-16.10Q269.41-15.28 269.41-13.83L269.41-13.83L269.41-13.83Q269.41-12.99 269.25-12.15L269.25-12.15L269.25-12.15Q269.09-11.31 269.16-10.41L269.16-10.41L269.16-10.41Q269.29-9.31 270.12-8.41L270.12-8.41L270.12-8.41Q270.96-7.51 272.25-6.85L272.25-6.85L272.25-6.85Q273.54-6.19 275.18-5.82L275.18-5.82L275.18-5.82Q276.83-5.45 278.53-5.45L278.53-5.45L278.53-5.45Q280.27-5.45 282.00-5.75L282.00-5.75L282.00-5.75Q283.72-6.06 285.12-6.90L285.12-6.90L285.12-6.90Q286.53-7.73 287.40-9.18L287.40-9.18L287.40-9.18Q288.27-10.63 288.27-12.96L288.27-12.96L288.27-12.96Q288.27-14.47 287.53-15.81L287.53-15.81L287.53-15.81Q286.78-17.14 285.62-18.26L285.62-18.26L285.62-18.26Q284.46-19.37 283.06-20.27L283.06-20.27L283.06-20.27Q281.66-21.17 280.37-21.85L280.37-21.85L280.37-21.85Q278.53-22.78 276.62-23.67L276.62-23.67L276.62-23.67Q274.70-24.56 272.88-25.54L272.88-25.54L272.88-25.54Q271.06-26.52 269.43-27.70L269.43-27.70L269.43-27.70Q267.80-28.88 266.58-30.45L266.58-30.45L266.58-30.45Q265.35-32.03 264.64-34.11L264.64-34.11L264.64-34.11Q263.94-36.19 263.94-38.93L263.94-38.93L263.94-38.93Q263.94-41.99 265.24-44.21L265.24-44.21L265.24-44.21Q266.55-46.44 268.67-47.89L268.67-47.89L268.67-47.89Q270.80-49.34 273.56-50.03L273.56-50.03L273.56-50.03Q276.31-50.72 279.21-50.72L279.21-50.72L279.21-50.72Q281.79-50.72 284.21-50.27L284.21-50.27L284.21-50.27Q286.62-49.82 288.52-48.81L288.52-48.81L288.52-48.81Q290.43-47.79 291.68-46.10L291.68-46.10L291.68-46.10Q292.94-44.41 293.20-41.96L293.20-41.96L293.20-41.96Q293.26-41.06 292.97-40.36L292.97-40.36L292.97-40.36Q292.68-39.67 292.17-39.20L292.17-39.20L292.17-39.20Q291.65-38.74 290.99-38.49L290.99-38.49L290.99-38.49Q290.33-38.25 289.65-38.25L289.65-38.25L289.65-38.25Q288.62-38.25 287.91-38.58L287.91-38.58L287.91-38.58Q287.20-38.90 286.75-39.38L286.75-39.38L286.75-39.38Q286.30-39.86 286.08-40.48L286.08-40.48L286.08-40.48Q285.85-41.09 285.79-41.67L285.79-41.67L285.79-41.67Q285.30-42.44 284.53-42.94L284.53-42.94L284.53-42.94Q283.75-43.44 282.80-43.75L282.80-43.75L282.80-43.75Q281.85-44.05 280.82-44.17L280.82-44.17L280.82-44.17Q279.79-44.28 278.82-44.28L278.82-44.28L278.82-44.28Q277.47-44.28 276.13-43.99L276.13-43.99L276.13-43.99Q274.80-43.70 273.70-43.05L273.70-43.05L273.70-43.05Q272.60-42.41 271.93-41.41L271.93-41.41L271.93-41.41Q271.25-40.41 271.25-38.96L271.25-38.96L271.25-38.96Q271.25-37.25 272.06-35.93L272.06-35.93L272.06-35.93Q272.86-34.61 274.09-33.58L274.09-33.58L274.09-33.58Q275.31-32.55 276.81-31.71L276.81-31.71L276.81-31.71Q278.31-30.87 279.73-30.16L279.73-30.16L279.73-30.16Q281.43-29.29 283.27-28.31L283.27-28.31L283.27-28.31Q285.11-27.33 286.86-26.18L286.86-26.18L286.86-26.18Q288.62-25.04 290.20-23.69L290.20-23.69L290.20-23.69Q291.78-22.33 292.97-20.67L292.97-20.67L292.97-20.67Q294.16-19.01 294.86-17.05L294.86-17.05L294.86-17.05Q295.55-15.08 295.55-12.70L295.55-12.70L295.55-12.70Q295.55-10.15 294.84-8.15L294.84-8.15L294.84-8.15Q294.13-6.16 292.91-4.64L292.91-4.64L292.91-4.64Q291.68-3.13 290.04-2.06L290.04-2.06L290.04-2.06Q288.40-1.00 286.49-0.32L286.49-0.32L286.49-0.32Q284.59 0.35 282.55 0.66L282.55 0.66L282.55 0.66Q280.50 0.97 278.47 0.97L278.47 0.97L278.47 0.97Q276.76 0.97 274.81 0.68L274.81 0.68L274.81 0.68Q272.86 0.39 270.96-0.24L270.96-0.24L270.96-0.24Q269.06-0.87 267.34-1.85L267.34-1.85L267.34-1.85Q265.61-2.84 264.31-4.24L264.31-4.24L264.31-4.24Q263.00-5.64 262.26-7.46L262.26-7.46L262.26-7.46Q261.52-9.28 261.58-11.57ZM315.79-44.41L315.79-44.41L315.79-44.41Q315.01-44.05 314.18-44.07L314.18-44.07L314.18-44.07Q313.34-44.09 312.65-44.42L312.65-44.42L312.65-44.42Q311.95-44.76 311.44-45.41L311.44-45.41L311.44-45.41Q310.92-46.05 310.79-46.95L310.79-46.95L310.79-46.95Q310.70-47.57 310.84-48.36L310.84-48.36L310.84-48.36Q310.99-49.15 311.23-49.97L311.23-49.97L311.23-49.97Q311.47-50.79 311.68-51.58L311.68-51.58L311.68-51.58Q311.89-52.37 311.95-53.01L311.95-53.01L311.95-53.01Q312.05-54.46 312.82-55.43L312.82-55.43L312.82-55.43Q313.60-56.40 315.14-56.62L315.14-56.62L315.14-56.62Q316.27-56.82 317.27-56.49L317.27-56.49L317.27-56.49Q318.27-56.17 318.75-55.08L318.75-55.08L318.75-55.08Q318.91-54.72 319.03-54.25L319.03-54.25L319.03-54.25Q319.14-53.79 319.20-53.43L319.20-53.43L319.20-53.43Q319.24-53.11 319.19-52.63L319.19-52.63L319.19-52.63Q319.14-52.14 319.01-51.61L319.01-51.61L319.01-51.61Q318.88-51.08 318.70-50.55L318.70-50.55L318.70-50.55Q318.53-50.02 318.37-49.63L318.37-49.63L318.37-49.63Q318.11-49.08 318.03-48.45L318.03-48.45L318.03-48.45Q317.95-47.82 317.85-47.31L317.85-47.31L317.85-47.31Q317.75-46.79 317.66-46.37L317.66-46.37L317.66-46.37Q317.56-45.96 317.35-45.60L317.35-45.60L317.35-45.60Q317.14-45.25 316.77-44.96L316.77-44.96L316.77-44.96Q316.40-44.67 315.79-44.41ZM310.28-2.42L310.28-2.42L310.28-2.42Q310.28-3.22 310.36-3.77L310.36-3.77L310.36-3.77Q310.44-4.32 310.52-4.98L310.52-4.98L310.52-4.98Q310.60-5.64 310.68-6.54L310.68-6.54L310.68-6.54Q310.76-7.44 310.76-8.99L310.76-8.99L310.76-8.99Q310.76-14.76 310.73-20.45L310.73-20.45L310.73-20.45Q310.70-26.14 310.57-32.48L310.57-32.48L310.57-32.48Q310.08-32.45 309.47-32.42L309.47-32.42L309.47-32.42Q308.86-32.39 308.20-32.37L308.20-32.37L308.20-32.37Q307.54-32.36 306.93-32.34L306.93-32.34L306.93-32.34Q306.31-32.32 305.83-32.32L305.83-32.32L305.83-32.32Q305.25-32.32 304.65-32.50L304.65-32.50L304.65-32.50Q304.06-32.68 303.57-33.10L303.57-33.10L303.57-33.10Q303.09-33.52 302.77-34.18L302.77-34.18L302.77-34.18Q302.45-34.84 302.45-35.80L302.45-35.80L302.45-35.80Q302.45-37.51 303.36-38.40L303.36-38.40L303.36-38.40Q304.28-39.28 305.54-39.28L305.54-39.28L305.54-39.28Q306.76-39.28 307.97-39.17L307.97-39.17L307.97-39.17Q309.18-39.06 310.34-39.06L310.34-39.06L310.34-39.06Q311.53-39.06 312.73-39.17L312.73-39.17L312.73-39.17Q313.92-39.28 314.98-39.28L314.98-39.28L314.98-39.28Q316.63-39.28 317.33-38.41L317.33-38.41L317.33-38.41Q318.04-37.54 318.04-36.00L318.04-36.00L318.04-36.00Q318.04-34.68 317.82-33.40L317.82-33.40L317.82-33.40Q317.59-32.13 317.59-30.68L317.59-30.68L317.59-30.68Q317.59-27.78 317.56-24.85L317.56-24.85L317.56-24.85Q317.53-21.91 317.51-18.88L317.51-18.88L317.51-18.88Q317.50-15.86 317.48-12.70L317.48-12.70L317.48-12.70Q317.46-9.54 317.53-6.19L317.53-6.19L317.53-6.19Q318.04-6.22 318.46-6.35L318.46-6.35L318.46-6.35Q318.88-6.48 319.27-6.62L319.27-6.62L319.27-6.62Q319.66-6.77 320.09-6.88L320.09-6.88L320.09-6.88Q320.53-6.99 321.07-6.99L321.07-6.99L321.07-6.99Q321.91-6.99 322.44-6.80L322.44-6.80L322.44-6.80Q322.97-6.61 323.30-6.27L323.30-6.27L323.30-6.27Q323.62-5.93 323.78-5.43L323.78-5.43L323.78-5.43Q323.94-4.93 324.07-4.35L324.07-4.35L324.07-4.35Q324.30-2.84 323.33-1.93L323.33-1.93L323.33-1.93Q322.36-1.03 320.69-0.52L320.69-0.52L320.69-0.52Q319.72-0.26 318.70 0L318.70 0L318.70 0Q317.69 0.26 316.79 0.47L316.79 0.47L316.79 0.47Q315.88 0.68 315.14 0.81L315.14 0.81L315.14 0.81Q314.40 0.93 313.98 0.93L313.98 0.93L313.98 0.93Q312.08 0.93 311.18 0.05L311.18 0.05L311.18 0.05Q310.28-0.84 310.28-2.42ZM336.19-2.35L336.19-2.35L336.19-2.35Q336.19-4.00 336.43-5.58L336.43-5.58L336.43-5.58Q336.67-7.15 336.67-8.93L336.67-8.93L336.67-8.93Q336.67-10.25 336.65-11.54L336.65-11.54L336.65-11.54Q336.64-12.83 336.62-14.28L336.62-14.28L336.62-14.28Q336.61-15.73 336.57-17.45L336.57-17.45L336.57-17.45Q336.54-19.17 336.49-21.37L336.49-21.37L336.49-21.37Q336.45-23.56 336.38-26.33L336.38-26.33L336.38-26.33Q336.32-29.10 336.25-32.68L336.25-32.68L336.25-32.68Q335.83-32.61 335.30-32.56L335.30-32.56L335.30-32.56Q334.77-32.52 333.96-32.52L333.96-32.52L333.96-32.52Q333.38-32.52 332.77-32.71L332.77-32.71L332.77-32.71Q332.16-32.90 331.68-33.31L331.68-33.31L331.68-33.31Q331.19-33.71 330.87-34.37L330.87-34.37L330.87-34.37Q330.55-35.03 330.55-36.00L330.55-36.00L330.55-36.00Q330.55-37.74 331.45-38.62L331.45-38.62L331.45-38.62Q332.35-39.51 333.64-39.51L333.64-39.51L333.64-39.51Q334.16-39.51 334.64-39.38L334.64-39.38L334.64-39.38Q335.12-39.25 335.67-39.25L335.67-39.25L335.67-39.25Q336.96-39.25 338.23-39.38L338.23-39.38L338.23-39.38Q339.51-39.51 340.92-39.51L340.92-39.51L340.92-39.51Q342.31-39.51 342.84-38.64L342.84-38.64L342.84-38.64Q343.37-37.77 343.37-36.19L343.37-36.19L343.37-35.55L343.37-35.55Q345.92-37.67 348.76-38.69L348.76-38.69L348.76-38.69Q351.59-39.70 354.04-39.70L354.04-39.70L354.04-39.70Q358.07-39.70 361.20-38.54L361.20-38.54L361.20-38.54Q364.32-37.38 366.51-35.09L366.51-35.09L366.51-35.09Q367.87-36.19 369.35-37.06L369.35-37.06L369.35-37.06Q370.83-37.93 372.33-38.51L372.33-38.51L372.33-38.51Q373.83-39.09 375.28-39.40L375.28-39.40L375.28-39.40Q376.73-39.70 378.05-39.70L378.05-39.70L378.05-39.70Q382.11-39.70 385.43-38.49L385.43-38.49L385.43-38.49Q388.75-37.29 391.12-34.93L391.12-34.93L391.12-34.93Q393.49-32.58 394.78-29.15L394.78-29.15L394.78-29.15Q396.06-25.72 396.06-21.24L396.06-21.24L396.06-21.24Q396.06-19.82 395.89-18.03L395.89-18.03L395.89-18.03Q395.71-16.24 395.39-14.36L395.39-14.36L395.39-14.36Q395.07-12.47 394.61-10.65L394.61-10.65L394.61-10.65Q394.16-8.83 393.65-7.38L393.65-7.38L393.65-7.38Q394.07-7.51 394.32-7.54L394.32-7.54L394.32-7.54Q394.58-7.57 394.78-7.57L394.78-7.57L394.78-7.57Q395.90-7.57 396.58-7.15L396.58-7.15L396.58-7.15Q397.26-6.74 397.63-6.16L397.63-6.16L397.63-6.16Q398.00-5.58 398.11-4.95L398.11-4.95L398.11-4.95Q398.22-4.32 398.22-3.90L398.22-3.90L398.22-3.90Q398.22-2.90 397.87-2.27L397.87-2.27L397.87-2.27Q397.51-1.64 396.63-1.21L396.63-1.21L396.63-1.21Q395.74-0.77 394.24-0.42L394.24-0.42L394.24-0.42Q392.75-0.06 390.46 0.42L390.46 0.42L390.46 0.42Q389.46 0.68 388.83 0.84L388.83 0.84L388.83 0.84Q388.20 1.00 387.69 1.00L387.69 1.00L387.69 1.00Q386.65 1.00 385.91 0.69L385.91 0.69L385.91 0.69Q385.17 0.39 384.70-0.11L384.70-0.11L384.70-0.11Q384.24-0.61 384.01-1.31L384.01-1.31L384.01-1.31Q383.79-2.00 383.79-2.77L383.79-2.77L383.79-2.77Q383.79-3.61 384.24-4.66L384.24-4.66L384.24-4.66Q384.69-5.70 385.43-6.54L385.43-6.54L385.43-6.54Q386.17-7.77 386.78-9.52L386.78-9.52L386.78-9.52Q387.40-11.28 387.83-13.28L387.83-13.28L387.83-13.28Q388.27-15.28 388.49-17.34L388.49-17.34L388.49-17.34Q388.72-19.40 388.72-21.24L388.72-21.24L388.72-21.24Q388.72-23.82 388.09-25.94L388.09-25.94L388.09-25.94Q387.46-28.07 386.12-29.58L386.12-29.58L386.12-29.58Q384.79-31.10 382.74-31.94L382.74-31.94L382.74-31.94Q380.69-32.77 377.89-32.77L377.89-32.77L377.89-32.77Q376.47-32.77 375.36-32.56L375.36-32.56L375.36-32.56Q374.25-32.36 373.30-31.97L373.30-31.97L373.30-31.97Q372.35-31.58 371.51-31.00L371.51-31.00L371.51-31.00Q370.67-30.42 369.83-29.65L369.83-29.65L369.83-29.65Q371.15-26.04 371.15-21.24L371.15-21.24L371.15-21.24Q371.15-19.79 370.96-17.95L370.96-17.95L370.96-17.95Q370.77-16.11 370.41-14.18L370.41-14.18L370.41-14.18Q370.06-12.25 369.51-10.38L369.51-10.38L369.51-10.38Q368.96-8.51 368.29-6.96L368.29-6.96L368.29-6.96Q368.80-7.06 369.35-7.27L369.35-7.27L369.35-7.27Q369.90-7.48 370.54-7.48L370.54-7.48L370.54-7.48Q371.60-7.48 372.27-7.06L372.27-7.06L372.27-7.06Q372.93-6.64 373.26-6.04L373.26-6.04L373.26-6.04Q373.60-5.45 373.72-4.75L373.72-4.75L373.72-4.75Q373.83-4.06 373.83-3.51L373.83-3.51L373.83-3.51Q373.83-2.48 373.43-1.89L373.43-1.89L373.43-1.89Q373.02-1.29 372.38-0.95L372.38-0.95L372.38-0.95Q371.73-0.61 370.90-0.47L370.90-0.47L370.90-0.47Q370.06-0.32 369.19-0.23L369.19-0.23L369.19-0.23Q368.32-0.13 367.50 0.02L367.50 0.02L367.50 0.02Q366.67 0.16 366.03 0.48L366.03 0.48L366.03 0.48Q365.93 0.55 365.58 0.63L365.58 0.63L365.58 0.63Q365.22 0.71 364.82 0.79L364.82 0.79L364.82 0.79Q364.42 0.87 364.02 0.93L364.02 0.93L364.02 0.93Q363.61 1.00 363.39 1.00L363.39 1.00L363.39 1.00Q362.32 1.00 361.58 0.61L361.58 0.61L361.58 0.61Q360.84 0.23 360.37-0.39L360.37-0.39L360.37-0.39Q359.91-1.00 359.70-1.74L359.70-1.74L359.70-1.74Q359.49-2.48 359.49-3.19L359.49-3.19L359.49-3.19Q359.49-4.03 359.75-4.88L359.75-4.88L359.75-4.88Q360.00-5.74 360.45-6.48L360.45-6.48L360.45-6.48Q361.16-7.77 361.78-9.56L361.78-9.56L361.78-9.56Q362.39-11.34 362.82-13.33L362.82-13.33L362.82-13.33Q363.26-15.31 363.52-17.35L363.52-17.35L363.52-17.35Q363.77-19.40 363.77-21.24L363.77-21.24L363.77-21.24Q363.77-23.82 363.27-25.94L363.27-25.94L363.27-25.94Q362.77-28.07 361.61-29.58L361.61-29.58L361.61-29.58Q360.45-31.10 358.57-31.94L358.57-31.94L358.57-31.94Q356.68-32.77 353.91-32.77L353.91-32.77L353.91-32.77Q351.17-32.77 348.55-31.60L348.55-31.60L348.55-31.60Q345.92-30.42 343.37-27.84L343.37-27.84L343.37-27.84Q343.37-26.39 343.36-24.25L343.36-24.25L343.36-24.25Q343.34-22.11 343.34-19.72L343.34-19.72L343.34-19.72Q343.34-17.34 343.34-14.99L343.34-14.99L343.34-14.99Q343.34-12.63 343.36-10.76L343.36-10.76L343.36-10.76Q343.37-8.89 343.39-7.75L343.39-7.75L343.39-7.75Q343.41-6.61 343.44-6.70L343.44-6.70L343.44-6.70Q344.02-6.86 344.39-6.98L344.39-6.98L344.39-6.98Q344.76-7.09 345.00-7.15L345.00-7.15L345.00-7.15Q345.24-7.22 345.37-7.23L345.37-7.23L345.37-7.23Q345.50-7.25 345.66-7.25L345.66-7.25L345.66-7.25Q347.40-7.25 348.30-6.40L348.30-6.40L348.30-6.40Q349.21-5.54 349.21-3.90L349.21-3.90L349.21-3.90Q349.21-2.67 348.72-1.97L348.72-1.97L348.72-1.97Q348.24-1.26 347.50-0.84L347.50-0.84L347.50-0.84Q346.76-0.42 345.82-0.24L345.82-0.24L345.82-0.24Q344.89-0.06 344.02 0.03L344.02 0.03L344.02 0.03Q343.47 0.10 342.89 0.26L342.89 0.26L342.89 0.26Q342.31 0.42 341.73 0.58L341.73 0.58L341.73 0.58Q341.15 0.74 340.57 0.87L340.57 0.87L340.57 0.87Q339.99 1.00 339.51 1.00L339.51 1.00L339.51 1.00Q337.61 1.00 336.90 0.11L336.90 0.11L336.90 0.11Q336.19-0.77 336.19-2.35Z" fill="url(#editing-shiny-gradient2)"></path></g></g><style>text {
  font-size: 64px;
  font-family: Arial Black;
  dominant-baseline: central;
  text-anchor: middle;
}</style></svg>